<svg width="330" height="190" viewBox="0 0 330 190" fill="none" xmlns="http://www.w3.org/2000/svg">
<path d="M299.023 73.8084L308.962 97.3615L298.825 102.014C298.825 102.014 285.104 83.2624 284.679 80.7016C284.254 78.1403 287.226 74.9234 287.226 74.9234L299.023 73.8084Z" fill="#E38680"/>
<path d="M298.012 95.0332L311.214 64.7064L319.7 66.5288C319.7 66.5288 313.535 95.2766 311.758 99.3842C308.334 107.299 294.472 105.233 298.012 95.0332Z" fill="#E38680"/>
<path d="M308.299 53.191C309.416 53.7685 311.138 55.1869 312.532 56.4149L315.787 52.3205L315.784 52.3178C315.954 52.0874 316.325 51.623 316.811 51.0325L316.812 51.0314C318.441 49.0535 321.383 45.6489 322.568 44.78C324.106 43.6513 324.551 45.1555 323.839 46.0031C323.29 46.6569 320.253 51.2175 318.894 53.268L318.969 53.3482C320.431 51.5373 323.876 47.4936 325.182 46.5352C326.72 45.4066 327.166 46.9107 326.454 47.7583C325.838 48.4908 322.106 54.1188 321.1 55.6388L321.157 55.7C322.751 53.7543 325.834 50.1707 327.054 49.2761C328.592 48.1475 329.038 49.6516 328.326 50.4992C327.855 51.0587 325.564 54.4791 324.06 56.7397C325.628 55.1826 327.489 53.4279 328.347 52.8985C329.835 51.9799 330.132 53.3875 329.419 54.1096C328.93 54.604 326.424 57.7696 324.893 59.7153L320.013 66.3367L318.566 70.656L310.114 67.825L311.215 64.7064L310.226 59.688C309.335 58.1767 308.093 56.1295 307.434 55.3021C306.333 53.9191 306.152 52.082 308.299 53.191Z" fill="#E38680"/>
<path d="M322.843 58.9266C322.807 58.914 322.773 58.8928 322.746 58.8627L317.126 52.7838C317.036 52.6862 317.042 52.5333 317.14 52.4427C317.238 52.3521 317.39 52.3576 317.481 52.4564L323.101 58.5353C323.191 58.633 323.185 58.7858 323.087 58.8764C323.019 58.9391 322.925 58.9555 322.843 58.9266Z" fill="white"/>
<path d="M314.806 60.9209C314.705 60.886 314.637 60.7866 314.645 60.6747C314.795 58.6581 313.293 57.1163 313.278 57.101C313.184 57.006 313.184 56.8537 313.279 56.7599C313.374 56.666 313.526 56.666 313.62 56.761C313.688 56.8297 315.294 58.4698 315.127 60.7108C315.117 60.8439 315.001 60.9433 314.868 60.9334C314.846 60.9324 314.825 60.9274 314.806 60.9209Z" fill="white"/>
<path d="M234.551 63.4582L236.848 110.484L234.551 130.399H287.507L285.864 112.214L287.507 68.0149L234.551 63.4582Z" fill="#007B5D"/>
<path d="M279.488 62.0916C271.406 59.2224 265.835 54.6051 260.593 52.3811C255.145 54.043 249.121 58.0512 240.784 60.0569C227.554 63.2388 225.212 45.6663 234.829 40.0885C243.294 35.1792 242.367 34.2355 244.989 25.1898C245.159 24.6031 245.344 23.9814 245.548 23.3221C245.77 22.599 246.017 21.8321 246.289 21.0151C246.449 20.5376 246.613 20.078 246.784 19.6354C249.383 12.8814 256.015 8.87861 262.848 9.47733C269.708 9.59904 275.884 14.2753 277.76 21.264C277.883 21.7219 277.999 22.1967 278.108 22.6879C278.293 23.5295 278.457 24.3176 278.602 25.0599C278.737 25.7372 278.856 26.3747 278.963 26.9756C280.622 36.2462 279.601 37.0878 287.505 42.8578C296.484 49.4131 292.312 66.6434 279.488 62.0916Z" fill="#4F1E4A"/>
<path d="M293.306 71.8862L228.979 68.504C228.979 68.504 230.057 64.4576 231.504 60.4117C232.952 56.3658 235.585 54.7792 238.922 54.1074C239.864 53.9169 241.59 53.5136 243.582 53.0322C244.712 52.7588 245.927 52.4608 247.134 52.1622C251.346 51.1214 255.454 50.0752 255.454 50.0752L262.172 49.8923H262.211L262.249 49.8967L268.259 50.6968C268.259 50.6968 271.831 51.9772 275.735 53.3569C279.399 54.651 283.356 56.0335 284.927 56.5268C288.175 57.5447 290.628 59.3987 291.643 63.5739C292.657 67.7492 293.306 71.8862 293.306 71.8862Z" fill="#007B5D"/>
<path d="M236.5 60.1661C236.428 60.1622 236.357 60.1355 236.299 60.0847L234.666 58.6597C234.528 58.5391 234.514 58.3295 234.634 58.1914C234.754 58.0533 234.964 58.0392 235.102 58.1592L236.736 59.5843C236.874 59.7049 236.888 59.9145 236.767 60.0525C236.698 60.1328 236.598 60.171 236.5 60.1661Z" fill="#007B5D"/>
<path d="M236.121 67.3693C236.049 67.3654 235.978 67.3387 235.921 67.2879L234.287 65.8629C234.149 65.7423 234.135 65.5327 234.255 65.3946C234.375 65.2566 234.585 65.2424 234.723 65.3624L236.357 66.7875C236.495 66.9081 236.509 67.1177 236.388 67.2557C236.319 67.336 236.219 67.3742 236.121 67.3693Z" fill="#007B5D"/>
<path d="M246.595 58.0479C246.535 58.0446 246.476 58.0255 246.424 57.9895C246.273 57.8853 246.235 57.6784 246.34 57.5278L247.573 55.7453C247.677 55.5946 247.884 55.557 248.035 55.6612C248.186 55.7655 248.223 55.9723 248.119 56.1229L246.885 57.9055C246.817 58.0037 246.706 58.0539 246.595 58.0479Z" fill="#007B5D"/>
<path d="M240.758 64.94C240.698 64.9367 240.639 64.9176 240.587 64.8816C240.436 64.7773 240.399 64.5705 240.503 64.4198L241.736 62.6373C241.84 62.4867 242.047 62.449 242.198 62.5533C242.349 62.6575 242.386 62.8644 242.282 63.015L241.049 64.7975C240.98 64.8958 240.868 64.9454 240.758 64.94Z" fill="#007B5D"/>
<path d="M243.66 56.0285C243.677 56.0853 243.68 56.1475 243.664 56.2092C243.619 56.3866 243.438 56.4935 243.26 56.4482L241.161 55.9084C240.983 55.8626 240.876 55.6819 240.922 55.5046C240.967 55.3272 241.148 55.2202 241.325 55.2661L243.425 55.8058C243.541 55.8348 243.626 55.9221 243.66 56.0285Z" fill="#007B5D"/>
<path d="M250.548 64.5023C250.477 64.4985 250.406 64.4717 250.348 64.421L248.714 62.996C248.576 62.8753 248.562 62.6658 248.682 62.5277C248.803 62.3896 249.012 62.3754 249.15 62.4955L250.784 63.9205C250.922 64.0411 250.936 64.2507 250.816 64.3888C250.746 64.469 250.646 64.5072 250.548 64.5023Z" fill="#007B5D"/>
<path d="M244.262 67.7448C244.22 67.7147 244.184 67.6744 244.159 67.6252C244.076 67.462 244.141 67.2623 244.305 67.1793L246.238 66.198C246.401 66.1151 246.601 66.18 246.684 66.3437C246.767 66.5069 246.702 66.7067 246.538 66.7896L244.605 67.771C244.491 67.8288 244.359 67.8146 244.262 67.7448Z" fill="#007B5D"/>
<path d="M274.186 62.1472C274.114 62.1434 274.043 62.1167 273.985 62.0659L272.352 60.6409C272.214 60.5203 272.2 60.3107 272.32 60.1726C272.44 60.0345 272.65 60.0203 272.788 60.1404L274.422 61.5654C274.56 61.686 274.574 61.8956 274.453 62.0337C274.384 62.1139 274.284 62.1527 274.186 62.1472Z" fill="#007B5D"/>
<path d="M273.807 69.3505C273.736 69.3466 273.665 69.3199 273.607 69.2691L271.974 67.8441C271.835 67.7235 271.821 67.5139 271.941 67.3758C272.062 67.2377 272.272 67.2235 272.41 67.3436L274.043 68.7686C274.181 68.8893 274.195 69.0988 274.075 69.2369C274.006 69.3172 273.906 69.3559 273.807 69.3505Z" fill="#007B5D"/>
<path d="M284.281 60.0296C284.222 60.0264 284.163 60.0073 284.11 59.9712C283.96 59.867 283.922 59.6601 284.026 59.5095L285.26 57.727C285.364 57.5764 285.571 57.5387 285.721 57.6429C285.872 57.7472 285.91 57.954 285.805 58.1047L284.572 59.8872C284.503 59.9849 284.392 60.0351 284.281 60.0296Z" fill="#007B5D"/>
<path d="M278.444 66.9212C278.385 66.9179 278.326 66.8988 278.273 66.8628C278.123 66.7585 278.085 66.5517 278.189 66.4011L279.423 64.6185C279.527 64.4679 279.734 64.4303 279.885 64.5345C280.035 64.6387 280.073 64.8456 279.969 64.9962L278.735 66.7787C278.667 66.877 278.556 66.9272 278.444 66.9212Z" fill="#007B5D"/>
<path d="M289.905 70.579C289.845 70.5757 289.786 70.5566 289.733 70.5206C289.583 70.4164 289.545 70.2095 289.649 70.0589L290.883 68.2764C290.987 68.1257 291.194 68.0881 291.344 68.1923C291.495 68.2966 291.533 68.5034 291.429 68.654L290.195 70.4366C290.127 70.5348 290.016 70.585 289.905 70.579Z" fill="#007B5D"/>
<path d="M281.347 58.0097C281.365 58.0664 281.367 58.1287 281.352 58.1903C281.306 58.3677 281.125 58.4747 280.948 58.4294L278.848 57.8896C278.671 57.8438 278.564 57.6631 278.609 57.4857C278.655 57.3084 278.836 57.2014 279.013 57.2472L281.113 57.787C281.229 57.8165 281.314 57.9038 281.347 58.0097Z" fill="#007B5D"/>
<path d="M288.307 65.1152C288.235 65.1114 288.164 65.0846 288.107 65.0339L286.473 63.6088C286.335 63.4882 286.321 63.2786 286.441 63.1405C286.562 63.0025 286.772 62.9883 286.91 63.1083L288.543 64.5334C288.681 64.654 288.695 64.8636 288.575 65.0017C288.505 65.0819 288.405 65.1201 288.307 65.1152Z" fill="#007B5D"/>
<path d="M281.949 69.7265C281.907 69.6965 281.872 69.6561 281.847 69.607C281.764 69.4438 281.829 69.244 281.992 69.1611L283.925 68.1797C284.089 68.0968 284.288 68.1617 284.371 68.3255C284.454 68.4887 284.389 68.6884 284.226 68.7714L282.293 69.7527C282.179 69.8105 282.047 69.7958 281.949 69.7265Z" fill="#007B5D"/>
<path d="M261.507 62.7367C261.448 62.7334 261.389 62.7143 261.336 62.6783C261.186 62.5741 261.148 62.3672 261.252 62.2166L262.486 60.4341C262.59 60.2834 262.797 60.2458 262.948 60.35C263.098 60.4542 263.136 60.6611 263.032 60.8117L261.798 62.5942C261.73 62.6925 261.619 62.7427 261.507 62.7367Z" fill="#007B5D"/>
<path d="M255.942 68.2502C255.882 68.2469 255.823 68.2278 255.771 68.1918C255.62 68.0875 255.583 67.8807 255.687 67.73L256.92 65.9475C257.025 65.7969 257.231 65.7592 257.382 65.8635C257.533 65.9677 257.57 66.1745 257.466 66.3252L256.233 68.1077C256.164 68.2059 256.053 68.2562 255.942 68.2502Z" fill="#007B5D"/>
<path d="M256.718 61.3286C256.736 61.3853 256.739 61.4476 256.723 61.5092C256.677 61.6866 256.496 61.7936 256.319 61.7483L254.219 61.2085C254.042 61.1627 253.935 60.982 253.981 60.8046C254.026 60.6272 254.207 60.5203 254.385 60.5661L256.484 61.1059C256.6 61.1354 256.686 61.2227 256.718 61.3286Z" fill="#007B5D"/>
<path d="M269.065 63.8817C268.993 63.8779 268.922 63.8512 268.864 63.8004L267.231 62.3754C267.093 62.2548 267.079 62.0452 267.199 61.9071C267.319 61.769 267.529 61.7548 267.667 61.8749L269.3 63.2999C269.439 63.4206 269.453 63.6301 269.332 63.7682C269.263 63.8484 269.163 63.8867 269.065 63.8817Z" fill="#007B5D"/>
<path d="M262.315 68.7752C262.273 68.7452 262.238 68.7048 262.213 68.6557C262.13 68.4925 262.195 68.2927 262.359 68.2098L264.292 67.2285C264.455 67.1455 264.655 67.2105 264.738 67.3742C264.821 67.5374 264.756 67.7371 264.592 67.8201L262.659 68.8014C262.545 68.8592 262.413 68.8451 262.315 68.7752Z" fill="#007B5D"/>
<path d="M242.884 78.0769C242.825 78.0737 242.766 78.0546 242.713 78.0185C242.562 77.9143 242.525 77.7074 242.629 77.5568L243.862 75.7743C243.966 75.6237 244.173 75.586 244.324 75.6902C244.475 75.7945 244.512 76.0013 244.408 76.152L243.175 77.9345C243.107 78.0327 242.995 78.0829 242.884 78.0769Z" fill="#007B5D"/>
<path d="M252.674 77.6392C252.603 77.6354 252.532 77.6086 252.474 77.5579L250.841 76.1328C250.703 76.0122 250.688 75.8026 250.809 75.6646C250.93 75.5265 251.139 75.5123 251.277 75.6324L252.911 77.0574C253.049 77.178 253.063 77.3876 252.942 77.5257C252.873 77.6059 252.773 77.6447 252.674 77.6392Z" fill="#007B5D"/>
<path d="M246.389 80.8822C246.347 80.8522 246.311 80.8118 246.286 80.7627C246.203 80.5995 246.268 80.3997 246.432 80.3168L248.365 79.3355C248.528 79.2525 248.728 79.3175 248.811 79.4812C248.894 79.6444 248.829 79.8441 248.665 79.9271L246.732 80.9084C246.618 80.9663 246.486 80.9515 246.389 80.8822Z" fill="#007B5D"/>
<path d="M276.313 75.2847C276.241 75.2809 276.17 75.2542 276.112 75.2034L274.479 73.7784C274.341 73.6578 274.327 73.4482 274.447 73.3101C274.568 73.172 274.777 73.1578 274.915 73.2779L276.549 74.7029C276.687 74.8236 276.701 75.0331 276.581 75.1712C276.511 75.2515 276.411 75.2897 276.313 75.2847Z" fill="#007B5D"/>
<path d="M275.933 82.4879C275.862 82.4841 275.791 82.4573 275.733 82.4066L274.1 80.9815C273.961 80.8609 273.947 80.6513 274.067 80.5133C274.188 80.3752 274.398 80.361 274.536 80.4816L276.169 81.9066C276.307 82.0273 276.321 82.2368 276.201 82.3749C276.131 82.4546 276.032 82.4928 275.933 82.4879Z" fill="#007B5D"/>
<path d="M251.008 84.8086C250.936 84.8048 250.865 84.778 250.807 84.7273L249.174 83.3022C249.036 83.1816 249.021 82.972 249.142 82.834C249.262 82.6959 249.472 82.6817 249.61 82.8018L251.243 84.2268C251.381 84.3474 251.396 84.557 251.276 84.6951C251.205 84.7753 251.106 84.8135 251.008 84.8086Z" fill="#007B5D"/>
<path d="M280.57 80.0586C280.511 80.0554 280.452 80.0362 280.399 80.0002C280.249 79.896 280.211 79.6891 280.315 79.5385L281.549 77.756C281.653 77.6053 281.86 77.5677 282.01 77.6719C282.161 77.7762 282.199 77.983 282.095 78.1337L280.861 79.9162C280.793 80.0144 280.682 80.0646 280.57 80.0586Z" fill="#007B5D"/>
<path d="M263.634 75.8741C263.574 75.8709 263.515 75.8518 263.463 75.8158C263.312 75.7115 263.275 75.5047 263.379 75.354L264.612 73.5715C264.716 73.4209 264.923 73.3832 265.074 73.4875C265.225 73.5917 265.262 73.7985 265.158 73.9492L263.925 75.7317C263.856 75.8294 263.745 75.8796 263.634 75.8741Z" fill="#007B5D"/>
<path d="M258.069 81.3876C258.009 81.3844 257.95 81.3653 257.898 81.3292C257.747 81.225 257.71 81.0181 257.814 80.8675L259.047 79.085C259.152 78.9344 259.358 78.8967 259.509 79.0009C259.66 79.1052 259.697 79.312 259.593 79.4627L258.36 81.2452C258.291 81.3434 258.18 81.3931 258.069 81.3876Z" fill="#007B5D"/>
<path d="M248.425 73.1087C248.365 73.1054 248.306 73.0863 248.254 73.0503C248.103 72.9461 248.066 72.7392 248.17 72.5886L249.403 70.8061C249.508 70.6554 249.714 70.6178 249.865 70.722C250.016 70.8263 250.053 71.0331 249.949 71.1837L248.716 72.9663C248.647 73.0645 248.536 73.1147 248.425 73.1087Z" fill="#007B5D"/>
<path d="M258.845 74.4661C258.862 74.5228 258.865 74.585 258.849 74.6467C258.803 74.8241 258.623 74.9311 258.445 74.8852L256.346 74.3454C256.168 74.2996 256.061 74.1189 256.107 73.9416C256.153 73.7642 256.334 73.6572 256.511 73.7025L258.611 74.2423C258.726 74.2723 258.812 74.3596 258.845 74.4661Z" fill="#007B5D"/>
<path d="M271.191 77.0192C271.12 77.0154 271.049 76.9886 270.991 76.9379L269.357 75.5128C269.219 75.3922 269.205 75.1827 269.325 75.0446C269.446 74.9065 269.655 74.8923 269.793 75.0124L271.427 76.4374C271.565 76.558 271.579 76.7676 271.459 76.9057C271.389 76.9859 271.289 77.0241 271.191 77.0192Z" fill="#007B5D"/>
<path d="M264.441 81.9127C264.399 81.8827 264.364 81.8423 264.339 81.7931C264.256 81.6299 264.321 81.4302 264.485 81.3472L266.418 80.3659C266.581 80.283 266.781 80.3479 266.864 80.5117C266.947 80.6748 266.882 80.8746 266.718 80.9576L264.785 81.9389C264.671 81.9967 264.539 81.9825 264.441 81.9127Z" fill="#007B5D"/>
<path d="M242.884 91.3885C242.825 91.3852 242.766 91.3661 242.713 91.3301C242.562 91.2258 242.525 91.019 242.629 90.8684L243.862 89.0858C243.966 88.9352 244.173 88.8976 244.324 89.0018C244.475 89.106 244.512 89.3129 244.408 89.4635L243.175 91.246C243.107 91.3437 242.995 91.3939 242.884 91.3885Z" fill="#007B5D"/>
<path d="M252.674 90.9508C252.603 90.947 252.532 90.9202 252.474 90.8695L250.841 89.4444C250.703 89.3238 250.688 89.1142 250.809 88.9761C250.93 88.8381 251.139 88.8239 251.277 88.9439L252.911 90.369C253.049 90.4896 253.063 90.6992 252.942 90.8373C252.873 90.9175 252.773 90.9557 252.674 90.9508Z" fill="#007B5D"/>
<path d="M246.389 94.1933C246.347 94.1633 246.311 94.1229 246.286 94.0738C246.203 93.9106 246.268 93.7108 246.432 93.6279L248.365 92.6465C248.528 92.5636 248.728 92.6285 248.811 92.7923C248.894 92.9554 248.829 93.1552 248.665 93.2382L246.732 94.2195C246.618 94.2773 246.486 94.2631 246.389 94.1933Z" fill="#007B5D"/>
<path d="M276.313 88.5957C276.241 88.5919 276.17 88.5652 276.112 88.5144L274.479 87.0894C274.341 86.9688 274.327 86.7592 274.447 86.6211C274.568 86.483 274.777 86.4688 274.915 86.5889L276.549 88.0139C276.687 88.1346 276.701 88.3441 276.581 88.4822C276.511 88.5624 276.411 88.6012 276.313 88.5957Z" fill="#007B5D"/>
<path d="M275.933 95.799C275.862 95.7951 275.791 95.7684 275.733 95.7176L274.1 94.2926C273.961 94.172 273.947 93.9624 274.067 93.8243C274.188 93.6862 274.398 93.672 274.536 93.7921L276.169 95.2172C276.307 95.3378 276.321 95.5474 276.201 95.6854C276.131 95.7657 276.032 95.8044 275.933 95.799Z" fill="#007B5D"/>
<path d="M280.57 93.3696C280.511 93.3664 280.452 93.3473 280.399 93.3112C280.249 93.207 280.211 93.0001 280.315 92.8495L281.549 91.067C281.653 90.9164 281.86 90.8787 282.01 90.9829C282.161 91.0872 282.199 91.294 282.095 91.4447L280.861 93.2272C280.793 93.3254 280.682 93.3756 280.57 93.3696Z" fill="#007B5D"/>
<path d="M263.634 89.1852C263.574 89.1819 263.515 89.1628 263.463 89.1268C263.312 89.0226 263.275 88.8157 263.379 88.6651L264.612 86.8826C264.716 86.7319 264.923 86.6943 265.074 86.7985C265.225 86.9028 265.262 87.1096 265.158 87.2602L263.925 89.0428C263.856 89.141 263.745 89.1912 263.634 89.1852Z" fill="#007B5D"/>
<path d="M258.069 94.6986C258.009 94.6954 257.95 94.6763 257.898 94.6402C257.747 94.536 257.71 94.3291 257.814 94.1785L259.047 92.396C259.152 92.2454 259.358 92.2077 259.509 92.3119C259.66 92.4162 259.697 92.623 259.593 92.7737L258.36 94.5562C258.291 94.6544 258.18 94.7046 258.069 94.6986Z" fill="#007B5D"/>
<path d="M258.845 87.7771C258.862 87.8338 258.865 87.8961 258.849 87.9577C258.803 88.1351 258.623 88.2421 258.445 88.1962L256.346 87.6565C256.168 87.6106 256.061 87.43 256.107 87.2526C256.153 87.0752 256.334 86.9682 256.511 87.0141L258.611 87.5539C258.726 87.5839 258.812 87.6707 258.845 87.7771Z" fill="#007B5D"/>
<path d="M271.191 90.3302C271.12 90.3264 271.049 90.2997 270.991 90.2489L269.357 88.8239C269.219 88.7033 269.205 88.4937 269.325 88.3556C269.446 88.2175 269.655 88.2033 269.793 88.3234L271.427 89.7484C271.565 89.8691 271.579 90.0786 271.459 90.2167C271.389 90.2969 271.289 90.3351 271.191 90.3302Z" fill="#007B5D"/>
<path d="M283.309 85.8526C283.237 85.8488 283.166 85.8221 283.109 85.7713L281.475 84.3463C281.337 84.2257 281.323 84.0161 281.443 83.878C281.563 83.7399 281.773 83.7257 281.911 83.8458L283.545 85.2708C283.683 85.3915 283.697 85.601 283.576 85.7391C283.507 85.8193 283.408 85.8581 283.309 85.8526Z" fill="#007B5D"/>
<path d="M264.441 95.2237C264.399 95.1937 264.364 95.1533 264.339 95.1042C264.256 94.941 264.321 94.7412 264.485 94.6582L266.418 93.6769C266.581 93.594 266.781 93.6589 266.864 93.8227C266.947 93.9858 266.882 94.1856 266.718 94.2686L264.785 95.2499C264.671 95.3077 264.539 95.2935 264.441 95.2237Z" fill="#007B5D"/>
<path d="M250.715 96.5603C250.673 96.5303 250.637 96.4899 250.612 96.4408C250.529 96.2776 250.594 96.0778 250.758 95.9949L252.691 95.0136C252.854 94.9306 253.054 94.9956 253.137 95.1593C253.22 95.3225 253.155 95.5222 252.991 95.6052L251.058 96.5865C250.944 96.6444 250.812 96.6296 250.715 96.5603Z" fill="#007B5D"/>
<path d="M242.884 104.699C242.825 104.696 242.766 104.677 242.713 104.641C242.562 104.537 242.525 104.33 242.629 104.179L243.862 102.397C243.966 102.246 244.173 102.209 244.324 102.313C244.475 102.417 244.512 102.624 244.408 102.775L243.175 104.557C243.107 104.655 242.995 104.705 242.884 104.699Z" fill="#007B5D"/>
<path d="M252.674 104.262C252.603 104.258 252.532 104.231 252.474 104.18L250.841 102.755C250.703 102.635 250.688 102.425 250.809 102.287C250.93 102.149 251.139 102.135 251.277 102.255L252.911 103.68C253.049 103.801 253.063 104.01 252.942 104.148C252.873 104.229 252.773 104.267 252.674 104.262Z" fill="#007B5D"/>
<path d="M246.389 107.504C246.347 107.474 246.311 107.434 246.286 107.385C246.203 107.222 246.268 107.022 246.432 106.939L248.365 105.958C248.528 105.875 248.728 105.94 248.811 106.103C248.894 106.266 248.829 106.466 248.665 106.549L246.732 107.53C246.618 107.588 246.486 107.574 246.389 107.504Z" fill="#007B5D"/>
<path d="M276.313 101.907C276.241 101.903 276.17 101.876 276.112 101.825L274.479 100.4C274.341 100.28 274.327 100.07 274.447 99.9321C274.568 99.7941 274.777 99.7799 274.915 99.9005L276.549 101.326C276.687 101.446 276.701 101.656 276.581 101.794C276.511 101.874 276.411 101.912 276.313 101.907Z" fill="#007B5D"/>
<path d="M282.161 99.0169C282.089 99.013 282.018 98.9863 281.961 98.9355L280.327 97.5105C280.189 97.3899 280.175 97.1803 280.295 97.0422C280.415 96.9041 280.625 96.8899 280.763 97.01L282.397 98.435C282.535 98.5557 282.549 98.7652 282.428 98.9033C282.359 98.9836 282.259 99.0218 282.161 99.0169Z" fill="#007B5D"/>
<path d="M275.933 109.111C275.862 109.107 275.791 109.08 275.733 109.029L274.1 107.604C273.961 107.484 273.947 107.274 274.067 107.136C274.188 106.998 274.398 106.984 274.536 107.104L276.169 108.529C276.307 108.65 276.321 108.859 276.201 108.998C276.131 109.077 276.032 109.115 275.933 109.111Z" fill="#007B5D"/>
<path d="M280.57 106.681C280.511 106.678 280.452 106.659 280.399 106.623C280.249 106.519 280.211 106.312 280.315 106.161L281.549 104.379C281.653 104.228 281.86 104.19 282.01 104.295C282.161 104.399 282.199 104.606 282.095 104.756L280.861 106.539C280.793 106.636 280.682 106.687 280.57 106.681Z" fill="#007B5D"/>
<path d="M263.634 102.496C263.574 102.493 263.515 102.474 263.463 102.438C263.312 102.334 263.275 102.127 263.379 101.976L264.612 100.194C264.716 100.043 264.923 100.005 265.074 100.11C265.225 100.214 265.262 100.421 265.158 100.571L263.925 102.354C263.856 102.452 263.745 102.502 263.634 102.496Z" fill="#007B5D"/>
<path d="M258.069 108.01C258.009 108.006 257.95 107.987 257.898 107.951C257.747 107.847 257.71 107.64 257.814 107.49L259.047 105.707C259.152 105.556 259.358 105.519 259.509 105.623C259.66 105.727 259.697 105.934 259.593 106.085L258.36 107.867C258.291 107.965 258.18 108.016 258.069 108.01Z" fill="#007B5D"/>
<path d="M258.845 101.089C258.862 101.145 258.865 101.208 258.849 101.269C258.803 101.447 258.623 101.554 258.445 101.508L256.346 100.969C256.168 100.923 256.061 100.742 256.107 100.565C256.153 100.387 256.334 100.28 256.511 100.326L258.611 100.866C258.726 100.895 258.812 100.982 258.845 101.089Z" fill="#007B5D"/>
<path d="M271.191 103.641C271.12 103.637 271.049 103.611 270.991 103.56L269.357 102.135C269.219 102.014 269.205 101.805 269.325 101.667C269.445 101.529 269.655 101.514 269.793 101.634L271.427 103.059C271.565 103.18 271.579 103.39 271.459 103.528C271.389 103.608 271.289 103.647 271.191 103.641Z" fill="#007B5D"/>
<path d="M253.972 111.199C253.901 111.195 253.83 111.169 253.772 111.118L252.139 109.693C252.001 109.572 251.986 109.363 252.106 109.225C252.227 109.087 252.437 109.072 252.575 109.192L254.208 110.617C254.346 110.738 254.36 110.948 254.24 111.086C254.17 111.166 254.071 111.204 253.972 111.199Z" fill="#007B5D"/>
<path d="M264.441 108.535C264.399 108.505 264.364 108.465 264.339 108.416C264.256 108.253 264.321 108.053 264.485 107.97L266.418 106.989C266.581 106.906 266.781 106.971 266.864 107.134C266.947 107.297 266.882 107.497 266.718 107.58L264.785 108.561C264.671 108.619 264.539 108.605 264.441 108.535Z" fill="#007B5D"/>
<path d="M262.249 49.8907L262.248 49.8961L262.211 49.8923L262.249 49.8907Z" fill="#5848BC"/>
<path d="M236.262 115.565C236.262 115.565 231.138 137.336 230.188 153.11C229.239 168.884 230.188 189.549 230.188 189.549H293.306C293.306 189.549 292.976 161.873 291.487 146.1C289.998 130.326 286.358 114.405 286.358 114.405L236.262 115.565Z" fill="#3B2539"/>
<path d="M269.916 155.374C270.355 155.374 272.18 154.571 272.18 154.571L266.411 133.685L237.418 143.912L242.603 162.604L269.916 155.374Z" fill="#E2C9B3"/>
<path d="M262.211 49.8923H262.172V49.8869L262.211 49.8923Z" fill="#5848BC"/>
<path d="M268.065 52.3314C268.065 52.3314 266.236 55.3599 261.581 55.1154C257.084 54.8791 255.362 51.5084 255.362 51.5084L255.755 49.2816L255.821 48.9072L256.439 45.4006L267.55 46.2962L267.665 47.6486L267.703 48.0912L268.065 52.3314Z" fill="#E38680"/>
<path d="M272.174 57.3821C269.218 60.8014 263.313 58.567 261.498 55.8572C259.41 58.3617 253.302 59.9647 250.72 56.2539C248.233 52.6818 255.615 50.0708 255.615 50.0708C256.179 53.4339 260.177 54.7132 261.541 55.0423C262.933 54.8567 267.015 54.0037 267.927 50.7181C267.927 50.7181 275.022 54.0905 272.174 57.3821Z" fill="#F2EDFD"/>
<path d="M267.664 47.6475C265.031 49.6516 260.91 50.2503 255.754 49.281L255.82 48.9066L256.438 45.4L267.549 46.2956L267.664 47.6475Z" fill="#3B2539"/>
<path d="M252.743 35.9946C250.071 39.338 244.835 36.7084 245.443 32.1163C245.994 27.9503 250.631 28.8596 250.631 28.8596L252.743 35.9946Z" fill="#007B5D"/>
<path d="M250.064 37.6641C250.019 38.5183 249.29 39.1738 248.436 39.129C247.582 39.0842 246.927 38.3556 246.971 37.5015C247.016 36.6479 247.745 35.9919 248.599 36.0366C249.453 36.0819 250.109 36.8105 250.064 37.6641Z" fill="#EAA940"/>
<path d="M250.447 35.9629C250.298 35.9553 250.167 35.8461 250.138 35.6928C249.757 33.6881 247.799 31.732 247.779 31.7124C247.648 31.583 247.647 31.3729 247.776 31.2419C247.905 31.1115 248.116 31.1098 248.246 31.2392C248.333 31.3249 250.371 33.3579 250.791 35.5683C250.825 35.749 250.707 35.9231 250.526 35.9575C250.5 35.9624 250.473 35.964 250.447 35.9629Z" fill="#B33A41"/>
<path d="M249.69 34.0374C249.655 34.0358 249.619 34.0281 249.586 34.0145C248.692 33.6619 247.813 33.8011 247.804 33.8027C247.623 33.8328 247.452 33.7105 247.422 33.5298C247.392 33.3486 247.513 33.1778 247.693 33.1473C247.736 33.1402 248.758 32.9737 249.83 33.3961C250 33.4633 250.084 33.6565 250.017 33.8273C249.963 33.9637 249.828 34.0451 249.69 34.0374Z" fill="#B33A41"/>
<path d="M271.172 36.9639C273.478 40.5687 278.962 38.503 278.839 33.8726C278.728 29.6723 274.021 30.0898 274.021 30.0898L271.172 36.9639Z" fill="#007B5D"/>
<path d="M276.892 39.0749C276.848 39.9291 276.119 40.5846 275.265 40.5398C274.411 40.4951 273.755 39.7664 273.8 38.9123C273.845 38.0587 274.573 37.4027 275.428 37.4474C276.281 37.4922 276.937 38.2208 276.892 39.0749Z" fill="#EAA940"/>
<path d="M273.459 37.1729C273.432 37.1718 273.406 37.1669 273.38 37.1593C273.204 37.1063 273.105 36.9208 273.158 36.7445C273.808 34.5903 276.048 32.7821 276.143 32.7063C276.286 32.5917 276.495 32.6151 276.61 32.7587C276.725 32.9022 276.701 33.1112 276.558 33.2259C276.536 33.2433 274.384 34.9833 273.795 36.9366C273.749 37.0861 273.608 37.1806 273.459 37.1729Z" fill="#B33A41"/>
<path d="M274.414 35.3375C274.275 35.3304 274.151 35.2354 274.111 35.094C274.062 34.9172 274.166 34.7338 274.343 34.6847C275.453 34.3769 276.452 34.6492 276.493 34.6612C276.67 34.7109 276.773 34.8943 276.723 35.0711C276.674 35.248 276.491 35.3511 276.314 35.302C276.305 35.2998 275.446 35.0695 274.52 35.326C274.485 35.3353 274.449 35.3391 274.414 35.3375Z" fill="#B33A41"/>
<path d="M249.907 23.7282C249.907 23.7282 248.296 31.2021 251.058 38.7404C253.562 45.5725 257.252 47.8549 261.29 48.1311C265.883 48.4449 275.649 46.2923 275.273 24.3995C275.019 9.60667 251.906 8.91298 249.907 23.7282Z" fill="#E38680"/>
<path d="M249.073 27.0258C249.073 27.0258 249.068 31.7075 251.015 31.6338C252.961 31.5601 252.573 20.9933 252.573 20.9933C252.573 20.9933 254.165 23.6305 257.33 23.5191C260.495 23.4078 257.853 19.1616 257.853 19.1616C257.853 19.1616 260.548 23.3554 263.217 23.3292C265.885 23.303 263.487 18.1814 263.487 18.1814C263.487 18.1814 266.664 24.0103 269.172 23.9754C271.68 23.9405 269.811 19.1245 269.811 19.1245C269.811 19.1245 271.526 24.4333 273.405 24.9196C273.405 24.9196 272.524 32.5605 274.572 32.3449C276.619 32.1294 276.319 23.5186 275.621 20.8732C274.923 18.2278 270.792 11.4607 262.135 11.8378C253.479 12.215 249.765 16.793 249.073 27.0258Z" fill="#4F1E4A"/>
<path d="M254 27.7724C254 27.7724 255.89 25.4146 258.941 25.2569C259.437 25.2313 259.852 25.6324 259.856 26.1291V26.1373C259.86 26.6399 259.441 27.0416 258.939 27.0225C257.799 26.9783 255.789 27.0351 254 27.7724Z" fill="#4F1E4A"/>
<path d="M271.026 28.6675C271.026 28.6675 269.393 26.1247 266.375 25.6477C265.884 25.5702 265.43 25.9255 265.374 26.4194L265.373 26.4276C265.316 26.927 265.689 27.3707 266.192 27.404C267.33 27.4799 269.323 27.7468 271.026 28.6675Z" fill="#4F1E4A"/>
<path d="M262.066 44.2473C261.119 44.1976 260.389 43.8276 260.34 43.8025C260.204 43.7321 260.151 43.5651 260.222 43.4286C260.292 43.2927 260.459 43.2393 260.595 43.3097C260.618 43.3217 262.284 44.1556 263.697 43.3282C263.829 43.2507 263.999 43.2955 264.076 43.427C264.154 43.5591 264.109 43.7288 263.977 43.8063C263.331 44.1851 262.656 44.2784 262.066 44.2473Z" fill="#007B5D"/>
<path d="M263.418 37.245C263.411 37.2444 263.404 37.2439 263.396 37.2428L261.381 36.9732C261.229 36.953 261.122 36.8133 261.143 36.6615C261.163 36.5098 261.302 36.4056 261.454 36.4236L263.14 36.649L262.882 31.4761C262.874 31.3233 262.992 31.1934 263.145 31.1852C263.298 31.1775 263.428 31.2954 263.436 31.4482L263.71 36.9535C263.714 37.0359 263.682 37.1156 263.621 37.1713C263.565 37.2226 263.493 37.2488 263.418 37.245Z" fill="#007B5D"/>
<path d="M257.978 39.1721C260.447 39.6911 262.975 39.9929 266.4 39.4963C266.4 39.4963 265.916 43.105 261.889 42.909C258.464 42.7431 257.978 39.1721 257.978 39.1721Z" fill="#F2EDFD"/>
<path d="M258.197 31.2021C258.147 32.1621 257.67 32.9169 257.132 32.8885C256.593 32.8601 256.198 32.0589 256.248 31.0995C256.299 30.1394 256.776 29.3846 257.314 29.413C257.852 29.4414 258.248 30.242 258.197 31.2021Z" fill="#3B2539"/>
<path d="M268.562 31.7468C268.512 32.7068 268.034 33.4616 267.496 33.4332C266.958 33.4048 266.563 32.6036 266.613 31.6442C266.663 30.6841 267.141 29.9293 267.679 29.9572C268.217 29.9861 268.612 30.7873 268.562 31.7468Z" fill="#3B2539"/>
<path d="M254.449 34.5794C254.44 34.7442 254.3 34.8714 254.135 34.8626C253.97 34.8539 253.843 34.7131 253.851 34.5483C253.86 34.3829 254.001 34.2563 254.166 34.265C254.331 34.2732 254.458 34.414 254.449 34.5794Z" fill="#007B5D"/>
<path d="M255.871 35.3773C255.862 35.5421 255.721 35.6693 255.557 35.6606C255.392 35.6518 255.265 35.511 255.273 35.3462C255.282 35.1808 255.423 35.0542 255.588 35.0629C255.753 35.0711 255.88 35.2119 255.871 35.3773Z" fill="#007B5D"/>
<path d="M254.356 36.3395C254.348 36.5043 254.207 36.6315 254.042 36.6228C253.877 36.614 253.75 36.4732 253.759 36.3084C253.767 36.1436 253.908 36.0164 254.073 36.0251C254.238 36.0333 254.365 36.1741 254.356 36.3395Z" fill="#007B5D"/>
<path d="M256.635 36.7592C256.626 36.924 256.485 37.0512 256.32 37.0425C256.156 37.0337 256.028 36.8929 256.037 36.7281C256.046 36.5633 256.187 36.4361 256.351 36.4448C256.517 36.453 256.643 36.5938 256.635 36.7592Z" fill="#007B5D"/>
<path d="M258.179 36.5403C258.17 36.7052 258.03 36.8323 257.865 36.8236C257.7 36.8149 257.573 36.674 257.581 36.5092C257.59 36.3444 257.731 36.2172 257.896 36.226C258.061 36.2347 258.188 36.3755 258.179 36.5403Z" fill="#007B5D"/>
<path d="M257.561 35.0422C257.552 35.2076 257.411 35.3342 257.247 35.3254C257.082 35.3167 256.955 35.1759 256.963 35.0111C256.972 34.8462 257.113 34.7191 257.278 34.7278C257.443 34.7365 257.57 34.8774 257.561 35.0422Z" fill="#007B5D"/>
<path d="M270.57 35.427C270.562 35.5918 270.688 35.7326 270.853 35.7413C271.018 35.7501 271.159 35.6234 271.168 35.4581C271.177 35.2927 271.05 35.1519 270.885 35.1437C270.72 35.135 270.579 35.2616 270.57 35.427Z" fill="#007B5D"/>
<path d="M269.074 36.0715C269.065 36.2363 269.192 36.3777 269.357 36.3859C269.522 36.3946 269.663 36.268 269.671 36.1026C269.68 35.9372 269.553 35.7964 269.388 35.7883C269.223 35.7795 269.082 35.9061 269.074 36.0715Z" fill="#007B5D"/>
<path d="M270.478 37.1871C270.469 37.3519 270.596 37.4933 270.761 37.5015C270.926 37.5102 271.067 37.3836 271.076 37.2182C271.084 37.0534 270.958 36.912 270.792 36.9038C270.628 36.8951 270.487 37.0223 270.478 37.1871Z" fill="#007B5D"/>
<path d="M268.169 37.3656C268.16 37.5304 268.287 37.6712 268.452 37.6799C268.617 37.6887 268.758 37.5621 268.767 37.3967C268.775 37.2319 268.649 37.0911 268.483 37.0823C268.318 37.0736 268.177 37.2002 268.169 37.3656Z" fill="#007B5D"/>
<path d="M266.655 36.9862C266.646 37.1511 266.773 37.2919 266.938 37.3006C267.103 37.3093 267.244 37.1827 267.253 37.0174C267.262 36.852 267.135 36.7112 266.97 36.703C266.805 36.6943 266.664 36.8209 266.655 36.9862Z" fill="#007B5D"/>
<path d="M267.427 35.5612C267.418 35.7266 267.545 35.8674 267.71 35.8756C267.875 35.8843 268.016 35.7577 268.025 35.5923C268.034 35.4275 267.907 35.2867 267.742 35.278C267.577 35.2692 267.436 35.3959 267.427 35.5612Z" fill="#007B5D"/>
<path d="M256.534 36.8231C253.843 36.6817 251.768 34.3769 251.91 31.6856C252.051 28.9944 254.356 26.9199 257.047 27.0612C259.738 27.2026 261.813 29.5074 261.671 32.1987C261.53 34.8899 259.225 36.9644 256.534 36.8231ZM257.024 27.5039C254.577 27.3751 252.482 29.2613 252.353 31.7086C252.224 34.1558 254.11 36.2511 256.558 36.3799C259.005 36.5087 261.1 34.6225 261.229 32.1752C261.357 29.7285 259.471 27.6327 257.024 27.5039Z" fill="#F2EDFD"/>
<path d="M268.285 37.4409C265.593 37.2995 263.519 34.9947 263.66 32.3035C263.801 29.6122 266.106 27.5377 268.798 27.6791C271.489 27.8204 273.563 30.1253 273.422 32.8165C273.28 35.5083 270.976 37.5822 268.285 37.4409ZM268.774 28.1222C266.327 27.9934 264.232 29.8797 264.103 32.3269C263.974 34.7742 265.86 36.8695 268.307 36.9983C270.755 37.1271 272.85 35.2409 272.979 32.7936C273.108 30.3463 271.221 28.2505 268.774 28.1222Z" fill="#F2EDFD"/>
<path d="M272.995 31.4291C272.942 31.4264 272.89 31.4046 272.85 31.3636C272.763 31.2763 272.765 31.136 272.851 31.0498C272.915 30.9865 274.44 29.508 276.582 29.9768C276.702 30.003 276.778 30.1209 276.751 30.241C276.725 30.3605 276.607 30.4358 276.487 30.4102C274.577 29.9921 273.177 31.3516 273.163 31.3653C273.117 31.4106 273.055 31.4319 272.995 31.4291Z" fill="#F2EDFD"/>
<path d="M252.518 30.2612C252.46 30.2584 252.404 30.2328 252.363 30.1858C252.339 30.1591 250.688 28.322 248.497 28.93C248.379 28.9627 248.257 28.894 248.224 28.7755C248.191 28.6577 248.261 28.5354 248.378 28.5027C250.848 27.8177 252.622 29.8092 252.697 29.8944C252.778 29.9866 252.768 30.1264 252.676 30.2071C252.631 30.2464 252.574 30.2644 252.518 30.2612Z" fill="#F2EDFD"/>
<path d="M261.474 31.7402C261.469 31.7402 261.464 31.7397 261.459 31.7391C261.338 31.7249 261.251 31.6147 261.265 31.493C261.31 31.1066 261.682 30.39 262.761 30.4467C263.839 30.5035 264.134 31.2545 264.139 31.6436C264.14 31.7659 264.042 31.8663 263.92 31.8679C263.796 31.869 263.697 31.7713 263.696 31.6491C263.693 31.5781 263.648 30.9374 262.738 30.8894C261.8 30.8402 261.709 31.5154 261.706 31.5443C261.692 31.6611 261.59 31.7462 261.474 31.7402Z" fill="#F2EDFD"/>
<path d="M244.356 163.618L271.815 156.972L265.315 135.949L239.171 144.704L244.356 163.618Z" fill="#F7E6D4"/>
<path d="M230.188 88.9914L236.378 116.745L246.62 146.83L255.878 143.912L246.72 109.072L242.34 85.8428L230.188 88.9914Z" fill="#E38680"/>
<path d="M234.987 55.6023C234.987 55.6023 239.445 61.3537 242.293 71.8861C243.517 76.4096 243.929 80.8086 244.002 84.3556C244.094 88.8277 235.322 90.1599 235.322 90.1599C230.424 90.8602 225.724 89.3222 225.114 84.4123C224.684 80.9445 224.485 76.7158 225.004 72.2131C226.318 60.821 234.987 55.6023 234.987 55.6023Z" fill="black"/>
<path d="M255.878 143.912L246.272 145.208L247.341 158.341L248.282 162.579C248.429 163.239 249.073 163.663 249.738 163.537C250.367 163.417 250.805 162.84 250.751 162.202L250.396 158.017L250.83 157.971L251.888 162.577C252.042 163.25 252.684 163.696 253.369 163.607C254.096 163.512 254.612 162.85 254.527 162.122L254.083 158.303L255.064 162.577C255.219 163.251 255.86 163.697 256.545 163.607C257.273 163.512 257.788 162.851 257.704 162.123L257.143 157.301L257.174 157.298L258.115 161.817C258.245 162.438 258.855 162.834 259.474 162.7C259.999 162.587 260.374 162.122 260.374 161.585V156.958L255.878 143.912Z" fill="#E38680"/>
<path d="M284.926 56.5263C284.926 56.5263 282.996 76.9259 286.801 87.0037C286.801 87.0037 294.088 84.1558 296.863 81.8996C299.639 79.6439 300.807 76.5766 299.2 71.1723C297.594 65.7685 290.223 56.4853 284.926 56.5263Z" fill="black"/>
<path d="M212.48 41.5708C213.712 41.9316 215.711 43.0177 217.346 43.9755L219.81 39.2431L219.806 39.2409C219.931 38.9773 220.212 38.4402 220.584 37.7542L220.585 37.7531C221.831 35.4559 224.115 31.475 225.132 30.3747C226.453 28.9458 227.191 30.3649 226.643 31.3522C226.22 32.1135 224.065 37.2706 223.103 39.588L223.193 39.654C224.305 37.5561 226.968 32.8378 228.09 31.6245C229.411 30.1957 230.15 31.6147 229.601 32.602C229.128 33.4545 226.484 39.8161 225.773 41.5337L225.841 41.5839C227.06 39.3255 229.45 35.1383 230.498 34.0052C231.818 32.5764 232.557 33.9954 232.008 34.9827C231.646 35.6344 230.017 39.5045 228.95 42.0609C230.218 40.1971 231.74 38.0784 232.496 37.3814C233.808 36.1725 234.379 37.5239 233.804 38.3857C233.411 38.9756 231.517 42.6324 230.362 44.8782L226.763 52.4569L226.756 59.1968L216.806 57.2314L217.946 52.5928L215.67 47.7021C214.484 46.3622 212.843 44.5535 212.022 43.8533C210.652 42.682 210.114 40.8777 212.48 41.5708Z" fill="#ECB6A0"/>
<path d="M228.158 44.4869C228.12 44.4814 228.082 44.4667 228.049 44.4416L221.239 39.4472C221.13 39.3669 221.106 39.2125 221.187 39.1028C221.267 38.9931 221.421 38.9685 221.531 39.0498L228.34 44.0443C228.45 44.1245 228.474 44.279 228.393 44.3887C228.337 44.4651 228.246 44.4995 228.158 44.4869Z" fill="#E48888"/>
<path d="M220.497 48.0459C220.39 48.0301 220.302 47.9444 220.288 47.8309C220.047 45.7826 218.243 44.5306 218.225 44.5186C218.112 44.4422 218.083 44.2888 218.16 44.1764C218.236 44.0639 218.389 44.0344 218.502 44.1109C218.583 44.1665 220.509 45.4966 220.777 47.773C220.793 47.9079 220.697 48.0306 220.561 48.0465C220.54 48.0497 220.518 48.0492 220.497 48.0459Z" fill="#E48888"/>
<path d="M201.648 67.1853L137.528 66.7482C137.528 66.7482 138.228 58.7541 142.109 57.2309C143.678 56.6163 147.274 54.8567 151.006 52.9776C152.392 52.2801 153.796 51.5662 155.12 50.8884C155.26 50.8169 155.399 50.7454 155.537 50.675C156.622 50.1177 157.649 49.591 158.556 49.1217C160.555 48.0896 161.986 47.3424 162.258 47.2005C162.29 47.1841 162.305 47.1765 162.305 47.1765L162.794 47.2895C163.406 47.4314 164.022 47.5536 164.638 47.6552C165.248 47.7589 165.86 47.8424 166.473 47.9062C169.855 48.2621 173.281 48.053 176.609 47.278C176.614 47.2769 176.62 47.2758 176.626 47.2748C176.626 47.2748 178.127 48.0607 180.332 49.2035C181.248 49.6795 182.288 50.2181 183.391 50.7863C183.531 50.8573 183.671 50.9298 183.812 51.0019C184.352 51.2791 184.905 51.5629 185.465 51.8495C186.061 52.1551 186.665 52.4651 187.271 52.7718C191.39 54.8693 195.516 56.9198 197.198 57.6069C201.057 59.1826 201.648 67.1853 201.648 67.1853Z" fill="#007B5D"/>
<path d="M183.812 51.0013C183.588 51.6415 183.331 52.2948 183.036 52.947C181.869 55.5226 180.349 57.572 178.515 59.0401C176.218 60.8799 173.425 61.8012 170.216 61.7794C163.511 61.7335 159.399 57.7761 157.131 54.4659C156.283 53.2287 155.623 51.9859 155.121 50.8884C155.261 50.8169 155.4 50.7454 155.538 50.675C156.031 51.7578 156.684 52.988 157.524 54.2138C160.732 58.8884 165.004 61.2767 170.22 61.3122C175.854 61.3504 180.022 58.4709 182.609 52.7549C182.908 52.0945 183.168 51.4325 183.391 50.7857C183.531 50.8572 183.671 50.9293 183.812 51.0013Z" fill="#A73034"/>
<path d="M180.331 49.203C179.5 52.672 176.405 57.9371 169.65 57.8907C162.234 57.84 159.488 51.8206 158.556 49.1222C160.555 48.0902 161.985 47.343 162.258 47.2011C162.289 47.1847 162.305 47.1771 162.305 47.1771L162.794 47.29C163.406 47.4319 164.021 47.5542 164.637 47.6557C165.247 47.7594 165.859 47.8429 166.472 47.9068C169.855 48.2626 173.281 48.0536 176.609 47.2786C176.614 47.2775 176.619 47.2764 176.625 47.2753C176.625 47.2742 178.126 48.0601 180.331 49.203Z" fill="#FCF6F0"/>
<path d="M176.94 48.9094C176.94 48.9094 175.656 52.8537 169.877 52.8139C163.138 52.768 161.576 49.1637 161.576 49.1637C162.172 47.6153 162.585 46.181 162.865 44.8979H162.866C163.382 42.5477 163.465 40.6992 163.442 39.5656L175.285 39.1776C175.388 40.1807 175.558 41.3623 175.751 42.5516C176.265 45.7084 176.94 48.9094 176.94 48.9094Z" fill="#ECB6A0"/>
<path d="M175.751 42.5516C173.908 43.8145 169.885 45.6865 162.867 44.8984C163.382 42.5483 163.465 40.6997 163.442 39.5661L175.285 39.1781C175.389 40.1807 175.558 41.3623 175.751 42.5516Z" fill="#3B2539"/>
<path d="M159.028 24.0938C159.028 24.0938 155.397 19.0814 152.527 22.0139C149.657 24.9464 155.084 35.2643 160.086 33.0588L159.028 24.0938Z" fill="#ECB6A0"/>
<path d="M157.24 29.9757C157.115 29.9746 157.008 29.8824 156.991 29.7558C156.532 26.2873 153.793 24.1413 153.765 24.12C153.654 24.0349 153.634 23.8761 153.719 23.7653C153.805 23.6545 153.963 23.6338 154.074 23.7194C154.194 23.8117 157.008 26.0161 157.492 29.6897C157.511 29.8284 157.413 29.9555 157.275 29.9741C157.263 29.9752 157.252 29.9757 157.24 29.9757Z" fill="#E48888"/>
<path d="M156.489 27.4821C156.408 27.4815 156.329 27.4417 156.28 27.3691C155.916 26.8228 154.816 26.76 154.425 26.7813C154.284 26.7906 154.166 26.6825 154.158 26.5422C154.15 26.4025 154.257 26.2835 154.397 26.2753C154.466 26.2715 156.104 26.1913 156.701 27.088C156.778 27.2043 156.747 27.3614 156.63 27.4389C156.588 27.4684 156.538 27.4821 156.489 27.4821Z" fill="#E48888"/>
<path d="M181.351 24.2461C181.351 24.2461 185.049 19.2833 187.879 22.2551C190.708 25.2263 185.142 35.4695 180.169 33.1958L181.351 24.2461Z" fill="#ECB6A0"/>
<path d="M183.058 30.152C183.046 30.152 183.034 30.1509 183.023 30.1493C182.884 30.1291 182.789 30.0008 182.809 29.8622C183.344 26.1951 186.188 24.0294 186.308 23.9388C186.42 23.8548 186.579 23.8777 186.663 23.9896C186.746 24.1015 186.724 24.2598 186.612 24.3438C186.584 24.3645 183.814 26.48 183.309 29.9348C183.291 30.0619 183.182 30.1531 183.058 30.152Z" fill="#E48888"/>
<path d="M183.842 27.6687C183.792 27.6682 183.743 27.654 183.7 27.6245C183.585 27.5454 183.556 27.3876 183.635 27.2725C184.244 26.3839 185.881 26.4871 185.951 26.4915C186.09 26.5013 186.195 26.6219 186.185 26.7611C186.176 26.9008 186.054 27.0072 185.916 26.9963C185.522 26.9701 184.422 27.0192 184.052 27.559C184.003 27.6305 183.923 27.6693 183.842 27.6687Z" fill="#E48888"/>
<path d="M172.634 8.71979C162.19 8.64392 155.668 14.0111 156.749 26.4407C157.394 33.86 161.145 43.0586 169.941 43.326C179.108 43.6044 182.855 33.6466 184.216 26.081C185.461 19.1567 181.988 11.4492 175.318 9.21208C174.856 9.05762 173.221 8.72415 172.634 8.71979Z" fill="#ECB6A0"/>
<path d="M156.644 24.173C156.644 24.173 155.509 12.3896 155.492 9.77968C155.449 3.43335 161.876 -0.0831041 171.273 0.00149174C178.851 0.0697142 179.762 3.39406 180.354 6.08421C180.354 6.08421 185.956 6.26595 186.784 10.1786C187.612 14.0913 183.976 25.8644 183.976 25.8644C183.976 25.8644 182.802 23.1404 181.974 19.2277C181.146 15.315 180.05 12.9168 177.609 12.8508C175.167 12.7847 172.114 12.8863 168.804 14.8172C165.494 16.7482 162.196 16.9698 159.888 15.2451C159.888 15.2451 159.228 21.1385 156.644 24.173Z" fill="#4F1E4A"/>
<g opacity="0.5">
<path d="M165.704 29.1489C165.698 30.0347 164.058 30.742 162.04 30.7283C160.022 30.7147 158.391 29.985 158.397 29.0992C158.403 28.2134 160.044 27.5061 162.062 27.5203C164.08 27.5339 165.71 28.2631 165.704 29.1489Z" fill="#E48888"/>
</g>
<g opacity="0.5">
<path d="M182.893 29.2662C182.887 30.152 181.246 30.8593 179.228 30.8457C177.211 30.832 175.58 30.1023 175.586 29.2165C175.592 28.3307 177.233 27.6234 179.25 27.637C181.268 27.6507 182.899 28.3804 182.893 29.2662Z" fill="#E48888"/>
</g>
<path d="M184.299 24.3618C184.299 24.3618 184.181 30.0941 182.424 37.2935C179.607 48.834 170.223 47.23 170.223 47.23C170.223 47.23 161.002 48.7069 158.342 37.1292C156.684 29.9064 156.644 24.173 156.644 24.173L158.161 21.6777C158.161 21.6777 159.144 31.6436 162.945 33.395C162.945 33.395 164.656 30.8299 170.318 33.2766C176.013 30.9074 177.873 33.4965 177.873 33.4965C181.696 31.797 182.817 21.8452 182.817 21.8452L184.299 24.3618Z" fill="#4F1E4A"/>
<path d="M170.748 32.3002C170.313 32.2974 169.836 32.1801 169.311 31.9481C169.164 31.8832 169.078 31.7282 169.1 31.5688L169.871 25.9446C169.898 25.747 170.081 25.6089 170.278 25.6357C170.475 25.6629 170.614 25.8447 170.587 26.0428L169.853 31.3898C170.57 31.6583 171.125 31.6387 171.586 31.333C171.753 31.2228 171.976 31.2681 172.087 31.434C172.197 31.5999 172.152 31.8243 171.986 31.935C171.614 32.1812 171.204 32.3029 170.748 32.3002Z" fill="#E48888"/>
<path d="M170.05 36.6686C167.98 36.6544 166.416 35.7894 166.389 35.7746C166.215 35.6764 166.155 35.4559 166.253 35.2823C166.352 35.1088 166.572 35.0482 166.745 35.1464C166.92 35.2447 170.904 37.4267 174.387 34.2486C174.535 34.1144 174.763 34.1247 174.898 34.2721C175.032 34.4195 175.022 34.6481 174.874 34.7824C173.259 36.2555 171.526 36.679 170.05 36.6686Z" fill="#684868"/>
<path d="M170.621 38.7382C169.803 38.7327 169.15 38.5286 169.104 38.5139C168.914 38.4533 168.809 38.2497 168.87 38.0598C168.93 37.8699 169.133 37.7656 169.323 37.8257C169.339 37.8306 170.938 38.3251 172.069 37.6958C172.243 37.5986 172.463 37.6614 172.56 37.836C172.657 38.0107 172.595 38.2306 172.42 38.3272C171.842 38.6492 171.191 38.742 170.621 38.7382Z" fill="#684868"/>
<path d="M163.103 22.6355C163.883 22.2229 165.022 21.7148 166.127 21.5614C166.721 21.479 167.098 20.8852 166.9 20.3192L166.859 20.2052C166.716 19.7964 166.313 19.5377 165.882 19.5808C164.897 19.679 163.149 20.0114 162.002 21.139C161.754 21.383 161.666 21.7475 161.768 22.0805C161.941 22.6426 162.583 22.9106 163.103 22.6355Z" fill="#3B2539"/>
<path d="M178.052 22.7376C177.277 22.3146 176.145 21.7907 175.043 21.622C174.45 21.5314 174.082 20.9321 174.287 20.3694L174.329 20.2559C174.478 19.8493 174.885 19.5961 175.315 19.6452C176.299 19.7565 178.042 20.1135 179.173 21.2558C179.418 21.503 179.501 21.8692 179.394 22.2005C179.214 22.7605 178.569 23.0198 178.052 22.7376Z" fill="#3B2539"/>
<path d="M165.986 25.4141C165.996 26.3932 165.63 27.1901 165.168 27.195C164.705 27.1999 164.322 26.4107 164.312 25.4315C164.301 24.453 164.668 23.6556 165.13 23.6507C165.592 23.6463 165.975 24.4355 165.986 25.4141Z" fill="#3B2539"/>
<path d="M174.733 25.4741C174.709 26.4527 175.064 27.255 175.526 27.2665C175.988 27.2774 176.382 26.4936 176.406 25.5151C176.429 24.5365 176.074 23.7342 175.612 23.7227C175.15 23.7113 174.756 24.4955 174.733 25.4741Z" fill="#3B2539"/>
<path d="M137.528 66.7482L140.44 96.1177L142.349 139.892H196.682L198.435 94.4634L201.648 67.1859C201.648 67.1859 145.268 62.1773 137.528 66.7482Z" fill="#007B5D"/>
<path d="M142.349 139.892L139.604 189.549H168.853L170.73 157.784L174.229 157.346L176.94 189.549H203.546L196.938 133.262L141.985 131.542L142.349 139.892Z" fill="#3B2539"/>
<path d="M158.604 150.263L157.111 146.929C156.832 146.306 156.351 145.798 155.744 145.486L151.86 143.485L148.224 141.005L144.455 138.247L142.433 135.95L136.496 143.697L136.964 144.13C136.964 144.13 136.964 144.13 138.021 146.153C139.078 148.175 141.422 150.335 141.422 150.335L144.048 152.261L146.083 153.921L147.633 155.875C148.095 156.458 148.925 156.592 149.547 156.186C149.812 156.013 149.91 155.672 149.778 155.385L148.216 151.999L149.511 152.955L151.314 155.295C151.733 155.84 152.503 155.965 153.073 155.581C153.457 155.323 153.6 154.824 153.41 154.4L151.935 151.106L152.773 151.705L154.39 153.805C154.914 154.485 155.876 154.642 156.588 154.162C156.827 154.002 156.915 153.693 156.798 153.43L154.772 148.907L156.506 151.159C156.925 151.703 157.695 151.829 158.265 151.445C158.651 151.185 158.794 150.687 158.604 150.263ZM154.628 148.776L154.704 148.818L154.717 148.834L154.628 148.776Z" fill="#ECB6A0"/>
<path d="M133.287 117.619L129.776 113.096L144.102 78.1108L142.109 57.2309C142.109 57.2309 131.615 58.1734 126.028 74.5321C120.439 90.8902 113.679 112.361 113.679 112.361C115.388 131.274 136.496 146.1 136.496 146.1L144.394 136.46L133.287 117.619Z" fill="#007B5D"/>
<path d="M229.167 57.2309L214.927 56.2277C214.927 56.2277 214.559 69.4378 213.612 78.7679C210.089 72.224 205.509 66.4605 204.264 63.8703C201.051 57.1812 191.146 54.7279 191.146 54.7279C191.146 54.7279 191.704 72.999 196.085 83.5151C198.623 89.6054 203.439 97.6879 207.043 103.411C212.748 112.473 226.759 110.221 229.032 99.7569C229.081 99.5315 229.126 99.3028 229.167 99.0698C231.139 87.896 229.167 57.2309 229.167 57.2309Z" fill="#007B5D"/>
<path d="M123.519 79.8976C123.519 79.8976 134.757 102.085 139.205 111.908L128.641 120.433L109.738 92.6334L123.519 79.8976Z" fill="#965450"/>
<path d="M131.792 114.039L115.112 139.892L121.969 148.603C121.969 148.603 141.059 130.997 142.17 124.696C143.282 118.395 138.548 110.485 138.548 110.485L131.792 114.039Z" fill="#965450"/>
<path d="M128.329 160.053L130.061 159.665C130.576 159.55 130.891 159.03 130.756 158.52L130.718 158.376C130.53 157.667 129.903 157.163 129.171 157.132L125.662 156.984C125.662 156.984 125.262 144.499 124.06 143.497C124.02 143.463 123.978 143.449 123.935 143.448L115.069 139.892L114.045 154.58L114.065 154.588H114.045C114.045 154.588 115.714 160.664 116.182 161.532C116.382 161.904 117.898 162.03 119.641 162.053C119.696 162.195 119.747 162.318 119.786 162.392C120.254 163.259 127.865 162.792 128.866 162.792C129.737 162.792 130.049 160.833 128.329 160.053Z" fill="#965450"/>
<path d="M40.8994 80.4172L30.4478 110.68L43.5028 115.646C43.5028 115.646 59.0815 91.0676 59.3992 87.8317C59.7168 84.5957 55.7332 80.8244 55.7332 80.8244L40.8994 80.4172Z" fill="#76413B"/>
<path d="M64.1872 39.0542C64.1872 39.0542 60.5534 38.5166 60.2423 41.6014C59.9313 44.6861 62.0985 45.1964 62.0985 45.1964C62.0985 45.1964 58.6623 41.8481 56.5911 44.5268C54.5198 47.2054 58.3812 49.0584 58.3812 49.0584C58.3812 49.0584 54.1127 47.1017 53.5178 49.9403C52.9229 52.7795 56.3586 54.2635 56.3586 54.2635C56.3586 54.2635 52.763 54.2558 53.0097 55.8359C53.2564 57.4159 56.6053 55.8435 56.6053 55.8435C56.6053 55.8435 51.6381 57.1326 52.7188 61.0497C53.7994 64.9667 57.6117 62.4289 57.6117 62.4289C57.6117 62.4289 54.6792 64.2376 55.8357 69.214C56.9922 74.191 78.9118 62.3623 78.9118 62.3623L78.3284 48.6894L64.1872 39.0542Z" fill="#352C38"/>
<path d="M90.3307 37.1751C90.3307 37.1751 93.8504 36.1234 94.5993 39.1317C95.3481 42.1406 93.2763 42.9549 93.2763 42.9549C93.2763 42.9549 96.1984 39.1497 98.6315 41.5048C101.065 43.8598 97.5077 46.2459 97.5077 46.2459C97.5077 46.2459 101.453 43.6988 102.447 46.4239C103.442 49.1484 100.254 51.1088 100.254 51.1088C100.254 51.1088 103.811 50.5871 103.793 52.1862C103.775 53.7853 100.236 52.708 100.236 52.708C100.236 52.708 105.336 53.2734 104.827 57.3045C104.317 61.3357 100.181 59.3692 100.181 59.3692C100.181 59.3692 103.343 60.7402 102.91 65.8307C102.477 70.9217 79.0915 62.3497 79.0915 62.3497L77.7134 48.7336L90.3307 37.1751Z" fill="#352C38"/>
<path d="M64.1872 39.0542C64.1872 39.0542 60.5534 38.5166 60.2423 41.6014C59.9313 44.6861 62.0985 45.1964 62.0985 45.1964C62.0985 45.1964 58.6623 41.8481 56.5911 44.5268C54.5198 47.2054 58.3812 49.0584 58.3812 49.0584C58.3812 49.0584 54.1127 47.1017 53.5178 49.9403C52.9229 52.7795 56.3586 54.2635 56.3586 54.2635C56.3586 54.2635 52.763 54.2558 53.0097 55.8359C53.2564 57.4159 56.6053 55.8435 56.6053 55.8435C56.6053 55.8435 51.6381 57.1326 52.7188 61.0497C53.7994 64.9667 57.6117 62.4289 57.6117 62.4289C57.6117 62.4289 54.6792 64.2376 55.8357 69.214C56.9922 74.191 78.9118 62.3623 78.9118 62.3623L78.3284 48.6894L64.1872 39.0542Z" fill="#352C38"/>
<path d="M90.3307 37.1751C90.3307 37.1751 93.8504 36.1234 94.5993 39.1317C95.3481 42.1406 93.2763 42.9549 93.2763 42.9549C93.2763 42.9549 96.1984 39.1497 98.6315 41.5048C101.065 43.8598 97.5077 46.2459 97.5077 46.2459C97.5077 46.2459 101.453 43.6988 102.447 46.4239C103.442 49.1484 100.254 51.1088 100.254 51.1088C100.254 51.1088 103.811 50.5871 103.793 52.1862C103.775 53.7853 100.236 52.708 100.236 52.708C100.236 52.708 105.336 53.2734 104.827 57.3045C104.317 61.3357 100.181 59.3692 100.181 59.3692C100.181 59.3692 103.343 60.7402 102.91 65.8307C102.477 70.9217 79.0915 62.3497 79.0915 62.3497L77.7134 48.7336L90.3307 37.1751Z" fill="#352C38"/>
<path d="M87.069 59.1154C83.189 57.3471 83.4996 47.4303 83.4996 47.4303L77.9343 48.1922L77.9086 47.8331L77.323 48.0557L76.7117 47.9193L76.7374 48.2784L71.1202 48.3199C71.1202 48.3199 72.8459 58.0905 69.2585 60.3953C65.6717 62.7001 43.6833 65.304 47.6937 87.8731L79.4188 85.5928L80.6157 85.5066L112.341 83.2263C113.083 60.3161 90.9489 60.8838 87.069 59.1154Z" fill="#965450"/>
<path d="M71.0073 57.7171C75.426 56.7304 79.8391 55.7229 84.2485 54.6946C83.3769 51.3457 83.4991 47.4303 83.4991 47.4303L77.9338 48.1922L77.9082 47.8331L77.3225 48.0557L76.7113 47.9193L76.7369 48.2784L71.1198 48.3199C71.1198 48.3199 72.1207 53.9971 71.0073 57.7171Z" fill="#76413B"/>
<path d="M65.3421 34.2519C63.9968 30.9183 61.4491 31.8958 61.2106 31.9956C60.9568 32.0437 58.2934 32.6369 59.0138 36.1588C59.7386 39.7015 61.9534 41.4911 63.8582 40.7816C65.8383 40.3204 66.6951 37.6052 65.3421 34.2519Z" fill="#76413B"/>
<path d="M87.3067 32.6729C88.1614 29.181 90.8231 29.7841 91.0726 29.8491C91.3302 29.8605 94.0514 30.0668 93.8418 33.6553C93.6312 37.2657 91.6953 39.3527 89.7081 38.9232C87.6838 38.7502 86.4471 36.1856 87.3067 32.6729Z" fill="#76413B"/>
<path d="M62.3012 29.2738C62.5888 14.2147 74.0234 14.2354 75.1041 14.2709C76.1689 14.081 87.4823 12.4256 89.9209 27.2888C92.3742 42.2405 86.3766 52.5519 77.8603 52.6207C69.422 53.7701 62.0119 44.4225 62.3012 29.2738Z" fill="#965450"/>
<path d="M78.5784 35.1797C79.0439 35.8319 79.3518 36.5294 79.6121 37.2411C79.8642 37.9545 80.0602 38.6842 80.1737 39.4373L80.2075 39.6628L80.1033 39.7697C79.8135 40.0672 79.5128 40.3554 79.2049 40.6381C78.8906 40.9148 78.5789 41.1942 78.2329 41.4442C78.4174 41.0589 78.6362 40.7025 78.8529 40.3433C79.0761 39.9902 79.3059 39.6426 79.5466 39.3047L79.4762 39.6366C79.1744 38.9374 78.9544 38.2143 78.7912 37.4758C78.6357 36.7346 78.5282 35.9798 78.5784 35.1797Z" fill="#76413B"/>
<path d="M83.0553 43.7992C80.5366 46.6263 75.9395 46.8097 72.2964 44.7139L83.0553 43.7992Z" fill="white"/>
<path d="M86.9794 29.4769C86.2764 29.2089 85.6499 28.9611 85.038 28.775C84.4301 28.5867 83.851 28.4726 83.2976 28.4639C82.7452 28.453 82.2011 28.5376 81.6406 28.7788C81.3448 28.8618 81.0762 29.0403 80.7668 29.1778C80.4639 29.3322 80.1855 29.5347 79.8242 29.6925C79.9263 29.335 80.0742 28.9846 80.2663 28.6555C80.4988 28.3624 80.7056 28.0169 81.0375 27.7893C81.6335 27.2626 82.492 26.9641 83.3227 26.9903C84.1577 27.005 84.9393 27.3052 85.5636 27.7462C86.182 28.1987 86.7005 28.7646 86.9794 29.4769Z" fill="#352C38"/>
<path d="M72.8114 30.4953C72.1085 30.2273 71.4814 29.9795 70.8701 29.7934C70.2621 29.6051 69.6825 29.4911 69.1296 29.4823C68.5773 29.4714 68.0331 29.556 67.4726 29.7972C67.1762 29.8802 66.9083 30.0587 66.5988 30.1962C66.2959 30.3507 66.0176 30.5537 65.6562 30.7109C65.7583 30.3534 65.9062 30.003 66.0983 29.6739C66.3308 29.3808 66.5377 29.0353 66.8695 28.8077C67.4655 28.2811 68.324 27.9825 69.1547 28.0087C69.9897 28.0235 70.7713 28.3236 71.3957 28.7646C72.014 29.2171 72.532 29.7825 72.8114 30.4953Z" fill="#352C38"/>
<path d="M72.7512 35.9487C72.4974 35.3336 72.1879 34.754 71.7551 34.3409C71.3272 33.9277 70.7864 33.7192 70.2051 33.7722C69.9104 33.776 69.6326 33.8447 69.381 33.9528C69.1332 34.0691 68.9296 34.2535 68.7604 34.4855C68.4303 34.9625 68.2905 35.612 68.2327 36.2735C68.0253 35.6398 67.9936 34.9046 68.3205 34.2295C68.4799 33.8917 68.7632 33.6041 69.095 33.4054C69.4378 33.2286 69.81 33.139 70.1735 33.121C70.9086 33.0555 71.7109 33.413 72.1345 34.0047C72.5798 34.581 72.7594 35.2801 72.7512 35.9487Z" fill="#352C38"/>
<path d="M85.4685 34.8288C85.2147 34.2137 84.9052 33.6341 84.4724 33.2209C84.0445 32.8078 83.5037 32.5993 82.9224 32.6522C82.6277 32.656 82.3499 32.7248 82.0983 32.8329C81.8505 32.9491 81.6475 33.1336 81.4777 33.3655C81.1475 33.8425 81.0078 34.492 80.95 35.1535C80.7426 34.5199 80.7109 33.7847 81.0378 33.1101C81.1972 32.7723 81.4805 32.4847 81.8123 32.286C82.155 32.1092 82.5273 32.0196 82.8908 32.0016C83.6259 31.9361 84.4282 32.2936 84.8517 32.8853C85.2971 33.4605 85.4767 34.1596 85.4685 34.8288Z" fill="#352C38"/>
<path d="M75.5447 14.2392C75.5447 14.2392 76.9064 23.3598 63.2733 28.2014C63.2733 28.2014 64.0041 32.8094 63.126 37.2662C63.126 37.2662 58.1556 31.0989 59.7225 23.2632C61.29 15.4274 71.5867 8.50091 75.5447 14.2392Z" fill="#352C38"/>
<path d="M74.4492 14.3178C74.4492 14.3178 74.846 23.5077 89.0314 26.3501C89.0314 26.3501 88.7879 32.2265 90.2943 36.512C90.2943 36.512 94.511 28.4857 91.8394 20.9551C89.1673 13.4238 77.546 8.07247 74.4492 14.3178Z" fill="#352C38"/>
<path d="M65.3273 27.3871C63.196 26.1187 61.259 24.4262 59.9039 22.5024C59.8351 22.7551 59.774 23.0083 59.7227 23.2632C58.1552 31.0989 63.1261 37.2662 63.1261 37.2662C64.0043 32.8089 63.2735 28.2014 63.2735 28.2014C64.0032 27.9422 64.6811 27.6687 65.3273 27.3871Z" fill="#2A242D"/>
<path d="M117.211 136.969L108.134 108.221L113.27 83.1597C114.063 59.9166 91.2367 60.5192 87.2378 58.7301C85.6976 58.0413 84.802 56.1245 84.2802 54.0293C82.2477 54.6389 80.0291 55.0543 77.6905 55.2224C75.3987 55.3872 73.1856 55.3021 71.1226 55.0041C70.9032 57.1419 70.2897 59.1525 68.8701 60.0509C65.1681 62.3934 42.491 65.0611 46.599 87.9522L55.9346 109.735C55.9346 109.735 49.3782 124.865 49.3782 136.969H117.211Z" fill="#007B5D"/>
<path d="M49.3779 136.969L52.5647 189.549H117.211V136.969H49.3779Z" fill="#3B2539"/>
<path d="M58.8912 63.981C58.8912 63.981 50.7045 66.4234 44.6393 72.5574C38.574 78.692 36.022 87.8731 36.022 87.8731L53.9574 96.1171L58.8912 63.981Z" fill="black"/>
<path d="M100.101 62.031C100.101 62.031 108.532 63.408 115.331 68.7173C122.13 74.0272 125.834 82.8072 125.834 82.8072L109.097 93.2736L100.101 62.031Z" fill="black"/>
<path d="M43.9357 106.855L24.9038 70.0627L14.4526 73.0492C14.4526 73.0492 24.5588 108.457 27.1224 113.441C32.0628 123.044 49.2123 119.304 43.9357 106.855Z" fill="#965450"/>
<path d="M27.5858 55.4298C26.2372 56.2446 24.2041 58.1614 22.5652 59.8119L18.1553 54.9675L18.1591 54.9642C17.9271 54.6908 17.4256 54.1412 16.7684 53.4437L16.7673 53.4426C14.5662 51.1072 10.6055 47.099 9.05329 46.1122C7.03718 44.8307 6.60547 46.747 7.56659 47.7468C8.3083 48.518 12.4835 53.9627 14.3539 56.4116L14.2671 56.5181C12.2881 54.377 7.64573 49.6129 5.93361 48.524C3.9175 47.242 3.48579 49.1588 4.44691 50.1586C5.27704 51.0221 10.4112 57.7433 11.7953 59.5586L11.7292 59.6399C9.57451 57.3417 5.42222 53.1217 3.82363 52.1054C1.80752 50.8234 1.37581 52.7402 2.33692 53.7401C2.97112 54.3999 6.12082 58.4823 8.18823 61.1818C6.09898 59.367 3.6266 57.3302 2.51048 56.7408C0.574056 55.7174 0.32027 57.5005 1.27211 58.3437C1.92377 58.9211 5.3207 62.6668 7.3963 64.97L14.0466 72.8342L16.215 78.1108L26.5406 73.8668L24.9038 70.0621L25.7214 63.7082C26.7087 61.745 28.089 59.0832 28.8427 57.9944C30.1029 56.1753 30.1755 53.8645 27.5858 55.4298Z" fill="#965450"/>
<path d="M9.89074 63.8124C9.93495 63.7939 9.97479 63.7644 10.007 63.7245L16.522 55.659C16.6273 55.5291 16.6071 55.3386 16.4767 55.2339C16.3468 55.1285 16.1568 55.1482 16.0515 55.2792L9.53653 63.3447C9.4312 63.4746 9.45194 63.6651 9.58183 63.7698C9.67189 63.8424 9.79087 63.855 9.89074 63.8124Z" fill="#76413B"/>
<path d="M20.101 65.6326C20.2238 65.5802 20.3013 65.4509 20.2817 65.3117C19.9258 62.8044 21.6734 60.7523 21.6914 60.7321C21.8006 60.606 21.7869 60.415 21.6608 60.3058C21.5348 60.1961 21.3443 60.2092 21.2346 60.3353C21.1549 60.427 19.2867 62.6101 19.6824 65.3968C19.7059 65.5622 19.8587 65.6768 20.0246 65.6534C20.0513 65.6501 20.077 65.6424 20.101 65.6326Z" fill="#76413B"/>
</svg>
