<svg width="340" height="190" viewBox="0 0 340 190" fill="none" xmlns="http://www.w3.org/2000/svg">
<path d="M16.2035 59.4167C16.2035 59.4167 36.1752 35.1426 96.9582 36.2254C157.742 37.3088 230.199 76.1159 270.665 69.3505C329.578 59.5013 347.773 92.8119 337.12 130.241C327.421 164.32 243.426 169.646 194.842 153.095C146.257 136.544 87.001 138.763 63.3649 148.085C39.7283 157.406 15.7593 144.446 5.99417 127.179C-3.77037 109.912 -2.43867 75.5243 16.2035 59.4167Z" fill="#E8D9EB"/>
<path d="M302.023 73.8084L311.962 97.3615L301.825 102.014C301.825 102.014 288.104 83.2624 287.679 80.7016C287.254 78.1403 290.226 74.9234 290.226 74.9234L302.023 73.8084Z" fill="#E38680"/>
<path d="M301.012 95.0332L314.214 64.7064L322.7 66.5288C322.7 66.5288 316.535 95.2766 314.758 99.3842C311.334 107.299 297.472 105.233 301.012 95.0332Z" fill="#E38680"/>
<path d="M311.299 53.191C312.416 53.7685 314.138 55.1869 315.532 56.4149L318.787 52.3205L318.784 52.3178C318.954 52.0874 319.325 51.623 319.811 51.0325L319.812 51.0314C321.441 49.0535 324.383 45.6489 325.568 44.78C327.106 43.6513 327.551 45.1555 326.839 46.0031C326.29 46.6569 323.253 51.2175 321.894 53.268L321.969 53.3482C323.431 51.5373 326.876 47.4936 328.182 46.5352C329.72 45.4066 330.166 46.9107 329.454 47.7583C328.838 48.4908 325.106 54.1188 324.1 55.6388L324.157 55.7C325.751 53.7543 328.834 50.1707 330.054 49.2761C331.592 48.1475 332.038 49.6516 331.326 50.4992C330.855 51.0587 328.564 54.4791 327.06 56.7397C328.628 55.1826 330.489 53.4279 331.347 52.8985C332.835 51.9799 333.132 53.3875 332.419 54.1096C331.93 54.604 329.424 57.7696 327.893 59.7153L323.013 66.3367L321.566 70.656L313.114 67.825L314.215 64.7064L313.226 59.688C312.335 58.1767 311.093 56.1295 310.434 55.3021C309.333 53.9191 309.152 52.082 311.299 53.191Z" fill="#E38680"/>
<path d="M325.843 58.9266C325.807 58.914 325.773 58.8928 325.746 58.8627L320.126 52.7838C320.036 52.6862 320.042 52.5333 320.14 52.4427C320.238 52.3521 320.39 52.3576 320.481 52.4564L326.101 58.5353C326.191 58.633 326.185 58.7858 326.087 58.8764C326.019 58.9391 325.925 58.9555 325.843 58.9266Z" fill="white"/>
<path d="M317.806 60.9209C317.705 60.886 317.637 60.7866 317.645 60.6747C317.795 58.6581 316.293 57.1163 316.278 57.101C316.184 57.006 316.184 56.8537 316.279 56.7599C316.374 56.666 316.526 56.666 316.62 56.761C316.688 56.8297 318.294 58.4698 318.127 60.7108C318.117 60.8439 318.001 60.9433 317.868 60.9334C317.846 60.9324 317.825 60.9274 317.806 60.9209Z" fill="white"/>
<path d="M237.551 63.4582L239.848 110.484L237.551 130.399H290.507L288.864 112.214L290.507 68.0149L237.551 63.4582Z" fill="#007B5D"/>
<path d="M282.488 62.0916C274.406 59.2224 268.835 54.6051 263.593 52.3811C258.145 54.043 252.121 58.0512 243.784 60.0569C230.554 63.2388 228.212 45.6663 237.829 40.0885C246.294 35.1792 245.367 34.2355 247.989 25.1898C248.159 24.6031 248.344 23.9814 248.548 23.3221C248.77 22.599 249.017 21.8321 249.289 21.0151C249.449 20.5376 249.613 20.078 249.784 19.6354C252.383 12.8814 259.015 8.87861 265.848 9.47733C272.708 9.59904 278.884 14.2753 280.76 21.264C280.883 21.7219 280.999 22.1967 281.108 22.6879C281.293 23.5295 281.457 24.3176 281.602 25.0599C281.737 25.7372 281.856 26.3747 281.963 26.9756C283.622 36.2462 282.601 37.0878 290.505 42.8578C299.484 49.4131 295.312 66.6434 282.488 62.0916Z" fill="#4F1E4A"/>
<path d="M296.306 71.8862L231.979 68.504C231.979 68.504 233.057 64.4576 234.504 60.4117C235.952 56.3658 238.585 54.7792 241.922 54.1074C242.864 53.9169 244.59 53.5136 246.582 53.0322C247.712 52.7588 248.927 52.4608 250.134 52.1622C254.346 51.1214 258.454 50.0752 258.454 50.0752L265.172 49.8923H265.211L265.249 49.8967L271.259 50.6968C271.259 50.6968 274.831 51.9772 278.735 53.3569C282.399 54.651 286.356 56.0335 287.927 56.5268C291.175 57.5447 293.628 59.3987 294.643 63.5739C295.657 67.7492 296.306 71.8862 296.306 71.8862Z" fill="#007B5D"/>
<path d="M239.5 60.1661C239.428 60.1622 239.357 60.1355 239.299 60.0847L237.666 58.6597C237.528 58.5391 237.514 58.3295 237.634 58.1914C237.754 58.0533 237.964 58.0392 238.102 58.1592L239.736 59.5843C239.874 59.7049 239.888 59.9145 239.767 60.0525C239.698 60.1328 239.598 60.171 239.5 60.1661Z" fill="#007B5D"/>
<path d="M239.121 67.3693C239.049 67.3654 238.978 67.3387 238.921 67.2879L237.287 65.8629C237.149 65.7423 237.135 65.5327 237.255 65.3946C237.375 65.2566 237.585 65.2424 237.723 65.3624L239.357 66.7875C239.495 66.9081 239.509 67.1177 239.388 67.2557C239.319 67.336 239.219 67.3742 239.121 67.3693Z" fill="#007B5D"/>
<path d="M249.595 58.0479C249.535 58.0446 249.476 58.0255 249.424 57.9895C249.273 57.8853 249.235 57.6784 249.34 57.5278L250.573 55.7453C250.677 55.5946 250.884 55.557 251.035 55.6612C251.186 55.7655 251.223 55.9723 251.119 56.1229L249.885 57.9055C249.817 58.0037 249.706 58.0539 249.595 58.0479Z" fill="#007B5D"/>
<path d="M243.758 64.94C243.698 64.9367 243.639 64.9176 243.587 64.8816C243.436 64.7773 243.399 64.5705 243.503 64.4198L244.736 62.6373C244.84 62.4867 245.047 62.449 245.198 62.5533C245.349 62.6575 245.386 62.8644 245.282 63.015L244.049 64.7975C243.98 64.8958 243.868 64.9454 243.758 64.94Z" fill="#007B5D"/>
<path d="M246.66 56.0285C246.677 56.0853 246.68 56.1475 246.664 56.2092C246.619 56.3866 246.438 56.4935 246.26 56.4482L244.161 55.9084C243.983 55.8626 243.876 55.6819 243.922 55.5046C243.967 55.3272 244.148 55.2202 244.325 55.2661L246.425 55.8058C246.541 55.8348 246.626 55.9221 246.66 56.0285Z" fill="#007B5D"/>
<path d="M253.548 64.5023C253.477 64.4985 253.406 64.4717 253.348 64.421L251.714 62.996C251.576 62.8753 251.562 62.6658 251.682 62.5277C251.803 62.3896 252.012 62.3754 252.15 62.4955L253.784 63.9205C253.922 64.0411 253.936 64.2507 253.816 64.3888C253.746 64.469 253.646 64.5072 253.548 64.5023Z" fill="#007B5D"/>
<path d="M247.262 67.7448C247.22 67.7147 247.184 67.6744 247.159 67.6252C247.076 67.462 247.141 67.2623 247.305 67.1793L249.238 66.198C249.401 66.1151 249.601 66.18 249.684 66.3437C249.767 66.5069 249.702 66.7067 249.538 66.7896L247.605 67.771C247.491 67.8288 247.359 67.8146 247.262 67.7448Z" fill="#007B5D"/>
<path d="M277.186 62.1472C277.114 62.1434 277.043 62.1167 276.985 62.0659L275.352 60.6409C275.214 60.5203 275.2 60.3107 275.32 60.1726C275.44 60.0345 275.65 60.0203 275.788 60.1404L277.422 61.5654C277.56 61.686 277.574 61.8956 277.453 62.0337C277.384 62.1139 277.284 62.1527 277.186 62.1472Z" fill="#007B5D"/>
<path d="M276.807 69.3505C276.736 69.3466 276.665 69.3199 276.607 69.2691L274.974 67.8441C274.835 67.7235 274.821 67.5139 274.941 67.3758C275.062 67.2377 275.272 67.2235 275.41 67.3436L277.043 68.7686C277.181 68.8893 277.195 69.0988 277.075 69.2369C277.006 69.3172 276.906 69.3559 276.807 69.3505Z" fill="#007B5D"/>
<path d="M287.281 60.0296C287.222 60.0264 287.163 60.0073 287.11 59.9712C286.96 59.867 286.922 59.6601 287.026 59.5095L288.26 57.727C288.364 57.5764 288.571 57.5387 288.721 57.6429C288.872 57.7472 288.91 57.954 288.805 58.1047L287.572 59.8872C287.503 59.9849 287.392 60.0351 287.281 60.0296Z" fill="#007B5D"/>
<path d="M281.444 66.9212C281.385 66.9179 281.326 66.8988 281.273 66.8628C281.123 66.7585 281.085 66.5517 281.189 66.4011L282.423 64.6185C282.527 64.4679 282.734 64.4303 282.885 64.5345C283.035 64.6387 283.073 64.8456 282.969 64.9962L281.735 66.7787C281.667 66.877 281.556 66.9272 281.444 66.9212Z" fill="#007B5D"/>
<path d="M292.905 70.579C292.845 70.5757 292.786 70.5566 292.733 70.5206C292.583 70.4164 292.545 70.2095 292.649 70.0589L293.883 68.2764C293.987 68.1257 294.194 68.0881 294.344 68.1923C294.495 68.2966 294.533 68.5034 294.429 68.654L293.195 70.4366C293.127 70.5348 293.016 70.585 292.905 70.579Z" fill="#007B5D"/>
<path d="M284.347 58.0097C284.365 58.0664 284.367 58.1287 284.352 58.1903C284.306 58.3677 284.125 58.4747 283.948 58.4294L281.848 57.8896C281.671 57.8438 281.564 57.6631 281.609 57.4857C281.655 57.3084 281.836 57.2014 282.013 57.2472L284.113 57.787C284.229 57.8165 284.314 57.9038 284.347 58.0097Z" fill="#007B5D"/>
<path d="M291.307 65.1152C291.235 65.1114 291.164 65.0846 291.107 65.0339L289.473 63.6088C289.335 63.4882 289.321 63.2786 289.441 63.1405C289.562 63.0025 289.772 62.9883 289.91 63.1083L291.543 64.5334C291.681 64.654 291.695 64.8636 291.575 65.0017C291.505 65.0819 291.405 65.1201 291.307 65.1152Z" fill="#007B5D"/>
<path d="M284.949 69.7265C284.907 69.6965 284.872 69.6561 284.847 69.607C284.764 69.4438 284.829 69.244 284.992 69.1611L286.925 68.1797C287.089 68.0968 287.288 68.1617 287.371 68.3255C287.454 68.4887 287.389 68.6884 287.226 68.7714L285.293 69.7527C285.179 69.8105 285.047 69.7958 284.949 69.7265Z" fill="#007B5D"/>
<path d="M264.507 62.7367C264.448 62.7334 264.389 62.7143 264.336 62.6783C264.186 62.5741 264.148 62.3672 264.252 62.2166L265.486 60.4341C265.59 60.2834 265.797 60.2458 265.948 60.35C266.098 60.4542 266.136 60.6611 266.032 60.8117L264.798 62.5942C264.73 62.6925 264.619 62.7427 264.507 62.7367Z" fill="#007B5D"/>
<path d="M258.942 68.2502C258.882 68.2469 258.823 68.2278 258.771 68.1918C258.62 68.0875 258.583 67.8807 258.687 67.73L259.92 65.9475C260.025 65.7969 260.231 65.7592 260.382 65.8635C260.533 65.9677 260.57 66.1745 260.466 66.3252L259.233 68.1077C259.164 68.2059 259.053 68.2562 258.942 68.2502Z" fill="#007B5D"/>
<path d="M259.718 61.3286C259.736 61.3853 259.739 61.4476 259.723 61.5092C259.677 61.6866 259.496 61.7936 259.319 61.7483L257.219 61.2085C257.042 61.1627 256.935 60.982 256.981 60.8046C257.026 60.6272 257.207 60.5203 257.385 60.5661L259.484 61.1059C259.6 61.1354 259.686 61.2227 259.718 61.3286Z" fill="#007B5D"/>
<path d="M272.065 63.8817C271.993 63.8779 271.922 63.8512 271.864 63.8004L270.231 62.3754C270.093 62.2548 270.079 62.0452 270.199 61.9071C270.319 61.769 270.529 61.7548 270.667 61.8749L272.3 63.2999C272.439 63.4206 272.453 63.6301 272.332 63.7682C272.263 63.8484 272.163 63.8867 272.065 63.8817Z" fill="#007B5D"/>
<path d="M265.315 68.7752C265.273 68.7452 265.238 68.7048 265.213 68.6557C265.13 68.4925 265.195 68.2927 265.359 68.2098L267.292 67.2285C267.455 67.1455 267.655 67.2105 267.738 67.3742C267.821 67.5374 267.756 67.7371 267.592 67.8201L265.659 68.8014C265.545 68.8592 265.413 68.8451 265.315 68.7752Z" fill="#007B5D"/>
<path d="M245.884 78.0769C245.825 78.0737 245.766 78.0546 245.713 78.0185C245.562 77.9143 245.525 77.7074 245.629 77.5568L246.862 75.7743C246.966 75.6237 247.173 75.586 247.324 75.6902C247.475 75.7945 247.512 76.0013 247.408 76.152L246.175 77.9345C246.107 78.0327 245.995 78.0829 245.884 78.0769Z" fill="#007B5D"/>
<path d="M255.674 77.6392C255.603 77.6354 255.532 77.6086 255.474 77.5579L253.841 76.1328C253.703 76.0122 253.688 75.8026 253.809 75.6646C253.93 75.5265 254.139 75.5123 254.277 75.6324L255.911 77.0574C256.049 77.178 256.063 77.3876 255.942 77.5257C255.873 77.6059 255.773 77.6447 255.674 77.6392Z" fill="#007B5D"/>
<path d="M249.389 80.8822C249.347 80.8522 249.311 80.8118 249.286 80.7627C249.203 80.5995 249.268 80.3997 249.432 80.3168L251.365 79.3355C251.528 79.2525 251.728 79.3175 251.811 79.4812C251.894 79.6444 251.829 79.8441 251.665 79.9271L249.732 80.9084C249.618 80.9663 249.486 80.9515 249.389 80.8822Z" fill="#007B5D"/>
<path d="M279.313 75.2847C279.241 75.2809 279.17 75.2542 279.112 75.2034L277.479 73.7784C277.341 73.6578 277.327 73.4482 277.447 73.3101C277.568 73.172 277.777 73.1578 277.915 73.2779L279.549 74.7029C279.687 74.8236 279.701 75.0331 279.581 75.1712C279.511 75.2515 279.411 75.2897 279.313 75.2847Z" fill="#007B5D"/>
<path d="M278.933 82.4879C278.862 82.4841 278.791 82.4573 278.733 82.4066L277.1 80.9815C276.961 80.8609 276.947 80.6513 277.067 80.5133C277.188 80.3752 277.398 80.361 277.536 80.4816L279.169 81.9066C279.307 82.0273 279.321 82.2368 279.201 82.3749C279.131 82.4546 279.032 82.4928 278.933 82.4879Z" fill="#007B5D"/>
<path d="M254.008 84.8086C253.936 84.8048 253.865 84.778 253.807 84.7273L252.174 83.3022C252.036 83.1816 252.021 82.972 252.142 82.834C252.262 82.6959 252.472 82.6817 252.61 82.8018L254.243 84.2268C254.381 84.3474 254.396 84.557 254.276 84.6951C254.205 84.7753 254.106 84.8135 254.008 84.8086Z" fill="#007B5D"/>
<path d="M283.57 80.0586C283.511 80.0554 283.452 80.0362 283.399 80.0002C283.249 79.896 283.211 79.6891 283.315 79.5385L284.549 77.756C284.653 77.6053 284.86 77.5677 285.01 77.6719C285.161 77.7762 285.199 77.983 285.095 78.1337L283.861 79.9162C283.793 80.0144 283.682 80.0646 283.57 80.0586Z" fill="#007B5D"/>
<path d="M266.634 75.8741C266.574 75.8709 266.515 75.8518 266.463 75.8158C266.312 75.7115 266.275 75.5047 266.379 75.354L267.612 73.5715C267.716 73.4209 267.923 73.3832 268.074 73.4875C268.225 73.5917 268.262 73.7985 268.158 73.9492L266.925 75.7317C266.856 75.8294 266.745 75.8796 266.634 75.8741Z" fill="#007B5D"/>
<path d="M261.069 81.3876C261.009 81.3844 260.95 81.3653 260.898 81.3292C260.747 81.225 260.71 81.0181 260.814 80.8675L262.047 79.085C262.152 78.9344 262.358 78.8967 262.509 79.0009C262.66 79.1052 262.697 79.312 262.593 79.4627L261.36 81.2452C261.291 81.3434 261.18 81.3931 261.069 81.3876Z" fill="#007B5D"/>
<path d="M251.425 73.1087C251.365 73.1054 251.306 73.0863 251.254 73.0503C251.103 72.9461 251.066 72.7392 251.17 72.5886L252.403 70.8061C252.508 70.6554 252.714 70.6178 252.865 70.722C253.016 70.8263 253.053 71.0331 252.949 71.1837L251.716 72.9663C251.647 73.0645 251.536 73.1147 251.425 73.1087Z" fill="#007B5D"/>
<path d="M261.845 74.4661C261.862 74.5228 261.865 74.585 261.849 74.6467C261.803 74.8241 261.623 74.9311 261.445 74.8852L259.346 74.3454C259.168 74.2996 259.061 74.1189 259.107 73.9416C259.153 73.7642 259.334 73.6572 259.511 73.7025L261.611 74.2423C261.726 74.2723 261.812 74.3596 261.845 74.4661Z" fill="#007B5D"/>
<path d="M274.191 77.0192C274.12 77.0154 274.049 76.9886 273.991 76.9379L272.357 75.5128C272.219 75.3922 272.205 75.1827 272.325 75.0446C272.446 74.9065 272.655 74.8923 272.793 75.0124L274.427 76.4374C274.565 76.558 274.579 76.7676 274.459 76.9057C274.389 76.9859 274.289 77.0241 274.191 77.0192Z" fill="#007B5D"/>
<path d="M267.441 81.9127C267.399 81.8827 267.364 81.8423 267.339 81.7931C267.256 81.6299 267.321 81.4302 267.485 81.3472L269.418 80.3659C269.581 80.283 269.781 80.3479 269.864 80.5117C269.947 80.6748 269.882 80.8746 269.718 80.9576L267.785 81.9389C267.671 81.9967 267.539 81.9825 267.441 81.9127Z" fill="#007B5D"/>
<path d="M245.884 91.3885C245.825 91.3852 245.766 91.3661 245.713 91.3301C245.562 91.2258 245.525 91.019 245.629 90.8684L246.862 89.0858C246.966 88.9352 247.173 88.8976 247.324 89.0018C247.475 89.106 247.512 89.3129 247.408 89.4635L246.175 91.246C246.107 91.3437 245.995 91.3939 245.884 91.3885Z" fill="#007B5D"/>
<path d="M255.674 90.9508C255.603 90.947 255.532 90.9202 255.474 90.8695L253.841 89.4444C253.703 89.3238 253.688 89.1142 253.809 88.9761C253.93 88.8381 254.139 88.8239 254.277 88.9439L255.911 90.369C256.049 90.4896 256.063 90.6992 255.942 90.8373C255.873 90.9175 255.773 90.9557 255.674 90.9508Z" fill="#007B5D"/>
<path d="M249.389 94.1933C249.347 94.1633 249.311 94.1229 249.286 94.0738C249.203 93.9106 249.268 93.7108 249.432 93.6279L251.365 92.6465C251.528 92.5636 251.728 92.6285 251.811 92.7923C251.894 92.9554 251.829 93.1552 251.665 93.2382L249.732 94.2195C249.618 94.2773 249.486 94.2631 249.389 94.1933Z" fill="#007B5D"/>
<path d="M279.313 88.5957C279.241 88.5919 279.17 88.5652 279.112 88.5144L277.479 87.0894C277.341 86.9688 277.327 86.7592 277.447 86.6211C277.568 86.483 277.777 86.4688 277.915 86.5889L279.549 88.0139C279.687 88.1346 279.701 88.3441 279.581 88.4822C279.511 88.5624 279.411 88.6012 279.313 88.5957Z" fill="#007B5D"/>
<path d="M278.933 95.799C278.862 95.7951 278.791 95.7684 278.733 95.7176L277.1 94.2926C276.961 94.172 276.947 93.9624 277.067 93.8243C277.188 93.6862 277.398 93.672 277.536 93.7921L279.169 95.2172C279.307 95.3378 279.321 95.5474 279.201 95.6854C279.131 95.7657 279.032 95.8044 278.933 95.799Z" fill="#007B5D"/>
<path d="M283.57 93.3696C283.511 93.3664 283.452 93.3473 283.399 93.3112C283.249 93.207 283.211 93.0001 283.315 92.8495L284.549 91.067C284.653 90.9164 284.86 90.8787 285.01 90.9829C285.161 91.0872 285.199 91.294 285.095 91.4447L283.861 93.2272C283.793 93.3254 283.682 93.3756 283.57 93.3696Z" fill="#007B5D"/>
<path d="M266.634 89.1852C266.574 89.1819 266.515 89.1628 266.463 89.1268C266.312 89.0226 266.275 88.8157 266.379 88.6651L267.612 86.8826C267.716 86.7319 267.923 86.6943 268.074 86.7985C268.225 86.9028 268.262 87.1096 268.158 87.2602L266.925 89.0428C266.856 89.141 266.745 89.1912 266.634 89.1852Z" fill="#007B5D"/>
<path d="M261.069 94.6986C261.009 94.6954 260.95 94.6763 260.898 94.6402C260.747 94.536 260.71 94.3291 260.814 94.1785L262.047 92.396C262.152 92.2454 262.358 92.2077 262.509 92.3119C262.66 92.4162 262.697 92.623 262.593 92.7737L261.36 94.5562C261.291 94.6544 261.18 94.7046 261.069 94.6986Z" fill="#007B5D"/>
<path d="M261.845 87.7771C261.862 87.8338 261.865 87.8961 261.849 87.9577C261.803 88.1351 261.623 88.2421 261.445 88.1962L259.346 87.6565C259.168 87.6106 259.061 87.43 259.107 87.2526C259.153 87.0752 259.334 86.9682 259.511 87.0141L261.611 87.5539C261.726 87.5839 261.812 87.6707 261.845 87.7771Z" fill="#007B5D"/>
<path d="M274.191 90.3302C274.12 90.3264 274.049 90.2997 273.991 90.2489L272.357 88.8239C272.219 88.7033 272.205 88.4937 272.325 88.3556C272.446 88.2175 272.655 88.2033 272.793 88.3234L274.427 89.7484C274.565 89.8691 274.579 90.0786 274.459 90.2167C274.389 90.2969 274.289 90.3351 274.191 90.3302Z" fill="#007B5D"/>
<path d="M286.309 85.8526C286.237 85.8488 286.166 85.8221 286.109 85.7713L284.475 84.3463C284.337 84.2257 284.323 84.0161 284.443 83.878C284.563 83.7399 284.773 83.7257 284.911 83.8458L286.545 85.2708C286.683 85.3915 286.697 85.601 286.576 85.7391C286.507 85.8193 286.408 85.8581 286.309 85.8526Z" fill="#007B5D"/>
<path d="M267.441 95.2237C267.399 95.1937 267.364 95.1533 267.339 95.1042C267.256 94.941 267.321 94.7412 267.485 94.6582L269.418 93.6769C269.581 93.594 269.781 93.6589 269.864 93.8227C269.947 93.9858 269.882 94.1856 269.718 94.2686L267.785 95.2499C267.671 95.3077 267.539 95.2935 267.441 95.2237Z" fill="#007B5D"/>
<path d="M253.715 96.5603C253.673 96.5303 253.637 96.4899 253.612 96.4408C253.529 96.2776 253.594 96.0778 253.758 95.9949L255.691 95.0136C255.854 94.9306 256.054 94.9956 256.137 95.1593C256.22 95.3225 256.155 95.5222 255.991 95.6052L254.058 96.5865C253.944 96.6444 253.812 96.6296 253.715 96.5603Z" fill="#007B5D"/>
<path d="M245.884 104.699C245.825 104.696 245.766 104.677 245.713 104.641C245.562 104.537 245.525 104.33 245.629 104.179L246.862 102.397C246.966 102.246 247.173 102.209 247.324 102.313C247.475 102.417 247.512 102.624 247.408 102.775L246.175 104.557C246.107 104.655 245.995 104.705 245.884 104.699Z" fill="#007B5D"/>
<path d="M255.674 104.262C255.603 104.258 255.532 104.231 255.474 104.18L253.841 102.755C253.703 102.635 253.688 102.425 253.809 102.287C253.93 102.149 254.139 102.135 254.277 102.255L255.911 103.68C256.049 103.801 256.063 104.01 255.942 104.148C255.873 104.229 255.773 104.267 255.674 104.262Z" fill="#007B5D"/>
<path d="M249.389 107.504C249.347 107.474 249.311 107.434 249.286 107.385C249.203 107.222 249.268 107.022 249.432 106.939L251.365 105.958C251.528 105.875 251.728 105.94 251.811 106.103C251.894 106.266 251.829 106.466 251.665 106.549L249.732 107.53C249.618 107.588 249.486 107.574 249.389 107.504Z" fill="#007B5D"/>
<path d="M279.313 101.907C279.241 101.903 279.17 101.876 279.112 101.825L277.479 100.4C277.341 100.28 277.327 100.07 277.447 99.9321C277.568 99.7941 277.777 99.7799 277.915 99.9005L279.549 101.326C279.687 101.446 279.701 101.656 279.581 101.794C279.511 101.874 279.411 101.912 279.313 101.907Z" fill="#007B5D"/>
<path d="M285.161 99.0169C285.089 99.013 285.018 98.9863 284.961 98.9355L283.327 97.5105C283.189 97.3899 283.175 97.1803 283.295 97.0422C283.415 96.9041 283.625 96.8899 283.763 97.01L285.397 98.435C285.535 98.5557 285.549 98.7652 285.428 98.9033C285.359 98.9836 285.259 99.0218 285.161 99.0169Z" fill="#007B5D"/>
<path d="M278.933 109.111C278.862 109.107 278.791 109.08 278.733 109.029L277.1 107.604C276.961 107.484 276.947 107.274 277.067 107.136C277.188 106.998 277.398 106.984 277.536 107.104L279.169 108.529C279.307 108.65 279.321 108.859 279.201 108.998C279.131 109.077 279.032 109.115 278.933 109.111Z" fill="#007B5D"/>
<path d="M283.57 106.681C283.511 106.678 283.452 106.659 283.399 106.623C283.249 106.519 283.211 106.312 283.315 106.161L284.549 104.379C284.653 104.228 284.86 104.19 285.01 104.295C285.161 104.399 285.199 104.606 285.095 104.756L283.861 106.539C283.793 106.636 283.682 106.687 283.57 106.681Z" fill="#007B5D"/>
<path d="M266.634 102.496C266.574 102.493 266.515 102.474 266.463 102.438C266.312 102.334 266.275 102.127 266.379 101.976L267.612 100.194C267.716 100.043 267.923 100.005 268.074 100.11C268.225 100.214 268.262 100.421 268.158 100.571L266.925 102.354C266.856 102.452 266.745 102.502 266.634 102.496Z" fill="#007B5D"/>
<path d="M261.069 108.01C261.009 108.006 260.95 107.987 260.898 107.951C260.747 107.847 260.71 107.64 260.814 107.49L262.047 105.707C262.152 105.556 262.358 105.519 262.509 105.623C262.66 105.727 262.697 105.934 262.593 106.085L261.36 107.867C261.291 107.965 261.18 108.016 261.069 108.01Z" fill="#007B5D"/>
<path d="M261.845 101.089C261.862 101.145 261.865 101.208 261.849 101.269C261.803 101.447 261.623 101.554 261.445 101.508L259.346 100.969C259.168 100.923 259.061 100.742 259.107 100.565C259.153 100.387 259.334 100.28 259.511 100.326L261.611 100.866C261.726 100.895 261.812 100.982 261.845 101.089Z" fill="#007B5D"/>
<path d="M274.191 103.641C274.12 103.637 274.049 103.611 273.991 103.56L272.357 102.135C272.219 102.014 272.205 101.805 272.325 101.667C272.445 101.529 272.655 101.514 272.793 101.634L274.427 103.059C274.565 103.18 274.579 103.39 274.459 103.528C274.389 103.608 274.289 103.647 274.191 103.641Z" fill="#007B5D"/>
<path d="M256.972 111.199C256.901 111.195 256.83 111.169 256.772 111.118L255.139 109.693C255.001 109.572 254.986 109.363 255.106 109.225C255.227 109.087 255.437 109.072 255.575 109.192L257.208 110.617C257.346 110.738 257.36 110.948 257.24 111.086C257.17 111.166 257.071 111.204 256.972 111.199Z" fill="#007B5D"/>
<path d="M267.441 108.535C267.399 108.505 267.364 108.465 267.339 108.416C267.256 108.253 267.321 108.053 267.485 107.97L269.418 106.989C269.581 106.906 269.781 106.971 269.864 107.134C269.947 107.297 269.882 107.497 269.718 107.58L267.785 108.561C267.671 108.619 267.539 108.605 267.441 108.535Z" fill="#007B5D"/>
<path d="M265.249 49.8907L265.248 49.8961L265.211 49.8923L265.249 49.8907Z" fill="#5848BC"/>
<path d="M239.262 115.565C239.262 115.565 234.138 137.336 233.188 153.11C232.239 168.884 233.188 189.549 233.188 189.549H296.306C296.306 189.549 295.976 161.873 294.487 146.1C292.998 130.326 289.358 114.405 289.358 114.405L239.262 115.565Z" fill="#3B2539"/>
<path d="M272.916 155.374C273.355 155.374 275.18 154.571 275.18 154.571L269.411 133.685L240.418 143.912L245.603 162.604L272.916 155.374Z" fill="#E2C9B3"/>
<path d="M265.211 49.8923H265.172V49.8869L265.211 49.8923Z" fill="#5848BC"/>
<path d="M271.065 52.3314C271.065 52.3314 269.236 55.3599 264.581 55.1154C260.084 54.8791 258.362 51.5084 258.362 51.5084L258.755 49.2816L258.821 48.9072L259.439 45.4006L270.55 46.2962L270.665 47.6486L270.703 48.0912L271.065 52.3314Z" fill="#E38680"/>
<path d="M275.174 57.3821C272.218 60.8014 266.313 58.567 264.498 55.8572C262.41 58.3617 256.302 59.9647 253.72 56.2539C251.233 52.6818 258.615 50.0708 258.615 50.0708C259.179 53.4339 263.177 54.7132 264.541 55.0423C265.933 54.8567 270.015 54.0037 270.927 50.7181C270.927 50.7181 278.022 54.0905 275.174 57.3821Z" fill="#F2EDFD"/>
<path d="M270.664 47.6475C268.031 49.6516 263.91 50.2503 258.754 49.281L258.82 48.9066L259.438 45.4L270.549 46.2956L270.664 47.6475Z" fill="#3B2539"/>
<path d="M255.743 35.9946C253.071 39.338 247.835 36.7084 248.443 32.1163C248.994 27.9503 253.631 28.8596 253.631 28.8596L255.743 35.9946Z" fill="#007B5D"/>
<path d="M253.064 37.6641C253.019 38.5183 252.29 39.1738 251.436 39.129C250.582 39.0842 249.927 38.3556 249.971 37.5015C250.016 36.6479 250.745 35.9919 251.599 36.0366C252.453 36.0819 253.109 36.8105 253.064 37.6641Z" fill="#EAA940"/>
<path d="M253.447 35.9629C253.298 35.9553 253.167 35.8461 253.138 35.6928C252.757 33.6881 250.799 31.732 250.779 31.7124C250.648 31.583 250.647 31.3729 250.776 31.2419C250.905 31.1115 251.116 31.1098 251.246 31.2392C251.333 31.3249 253.371 33.3579 253.791 35.5683C253.825 35.749 253.707 35.9231 253.526 35.9575C253.5 35.9624 253.473 35.964 253.447 35.9629Z" fill="#B33A41"/>
<path d="M252.69 34.0374C252.655 34.0358 252.619 34.0281 252.586 34.0145C251.692 33.6619 250.813 33.8011 250.804 33.8027C250.623 33.8328 250.452 33.7105 250.422 33.5298C250.392 33.3486 250.513 33.1778 250.693 33.1473C250.736 33.1402 251.758 32.9737 252.83 33.3961C253 33.4633 253.084 33.6565 253.017 33.8273C252.963 33.9637 252.828 34.0451 252.69 34.0374Z" fill="#B33A41"/>
<path d="M274.172 36.9639C276.478 40.5687 281.962 38.503 281.839 33.8726C281.728 29.6723 277.021 30.0898 277.021 30.0898L274.172 36.9639Z" fill="#007B5D"/>
<path d="M279.892 39.0749C279.848 39.9291 279.119 40.5846 278.265 40.5398C277.411 40.4951 276.755 39.7664 276.8 38.9123C276.845 38.0587 277.573 37.4027 278.428 37.4474C279.281 37.4922 279.937 38.2208 279.892 39.0749Z" fill="#EAA940"/>
<path d="M276.459 37.1729C276.432 37.1718 276.406 37.1669 276.38 37.1593C276.204 37.1063 276.105 36.9208 276.158 36.7445C276.808 34.5903 279.048 32.7821 279.143 32.7063C279.286 32.5917 279.495 32.6151 279.61 32.7587C279.725 32.9022 279.701 33.1112 279.558 33.2259C279.536 33.2433 277.384 34.9833 276.795 36.9366C276.749 37.0861 276.608 37.1806 276.459 37.1729Z" fill="#B33A41"/>
<path d="M277.414 35.3375C277.275 35.3304 277.151 35.2354 277.111 35.094C277.062 34.9172 277.166 34.7338 277.343 34.6847C278.453 34.3769 279.452 34.6492 279.493 34.6612C279.67 34.7109 279.773 34.8943 279.723 35.0711C279.674 35.248 279.491 35.3511 279.314 35.302C279.305 35.2998 278.446 35.0695 277.52 35.326C277.485 35.3353 277.449 35.3391 277.414 35.3375Z" fill="#B33A41"/>
<path d="M252.907 23.7282C252.907 23.7282 251.296 31.2021 254.058 38.7404C256.562 45.5725 260.252 47.8549 264.29 48.1311C268.883 48.4449 278.649 46.2923 278.273 24.3995C278.019 9.60667 254.906 8.91298 252.907 23.7282Z" fill="#E38680"/>
<path d="M252.073 27.0258C252.073 27.0258 252.068 31.7075 254.015 31.6338C255.961 31.5601 255.573 20.9933 255.573 20.9933C255.573 20.9933 257.165 23.6305 260.33 23.5191C263.495 23.4078 260.853 19.1616 260.853 19.1616C260.853 19.1616 263.548 23.3554 266.217 23.3292C268.885 23.303 266.487 18.1814 266.487 18.1814C266.487 18.1814 269.664 24.0103 272.172 23.9754C274.68 23.9405 272.811 19.1245 272.811 19.1245C272.811 19.1245 274.526 24.4333 276.405 24.9196C276.405 24.9196 275.524 32.5605 277.572 32.3449C279.619 32.1294 279.319 23.5186 278.621 20.8732C277.923 18.2278 273.792 11.4607 265.135 11.8378C256.479 12.215 252.765 16.793 252.073 27.0258Z" fill="#4F1E4A"/>
<path d="M257 27.7724C257 27.7724 258.89 25.4146 261.941 25.2569C262.437 25.2313 262.852 25.6324 262.856 26.1291V26.1373C262.86 26.6399 262.441 27.0416 261.939 27.0225C260.799 26.9783 258.789 27.0351 257 27.7724Z" fill="#4F1E4A"/>
<path d="M274.026 28.6675C274.026 28.6675 272.393 26.1247 269.375 25.6477C268.884 25.5702 268.43 25.9255 268.374 26.4194L268.373 26.4276C268.316 26.927 268.689 27.3707 269.192 27.404C270.33 27.4799 272.323 27.7468 274.026 28.6675Z" fill="#4F1E4A"/>
<path d="M265.066 44.2473C264.119 44.1976 263.389 43.8276 263.34 43.8025C263.204 43.7321 263.151 43.5651 263.222 43.4286C263.292 43.2927 263.459 43.2393 263.595 43.3097C263.618 43.3217 265.284 44.1556 266.697 43.3282C266.829 43.2507 266.999 43.2955 267.076 43.427C267.154 43.5591 267.109 43.7288 266.977 43.8063C266.331 44.1851 265.656 44.2784 265.066 44.2473Z" fill="#007B5D"/>
<path d="M266.418 37.245C266.411 37.2444 266.404 37.2439 266.396 37.2428L264.381 36.9732C264.229 36.953 264.122 36.8133 264.143 36.6615C264.163 36.5098 264.302 36.4056 264.454 36.4236L266.14 36.649L265.882 31.4761C265.874 31.3233 265.992 31.1934 266.145 31.1852C266.298 31.1775 266.428 31.2954 266.436 31.4482L266.71 36.9535C266.714 37.0359 266.682 37.1156 266.621 37.1713C266.565 37.2226 266.493 37.2488 266.418 37.245Z" fill="#007B5D"/>
<path d="M260.978 39.1721C263.447 39.6911 265.975 39.9929 269.4 39.4963C269.4 39.4963 268.916 43.105 264.889 42.909C261.464 42.7431 260.978 39.1721 260.978 39.1721Z" fill="#F2EDFD"/>
<path d="M261.197 31.2021C261.147 32.1621 260.67 32.9169 260.132 32.8885C259.593 32.8601 259.198 32.0589 259.248 31.0995C259.299 30.1394 259.776 29.3846 260.314 29.413C260.852 29.4414 261.248 30.242 261.197 31.2021Z" fill="#3B2539"/>
<path d="M271.562 31.7468C271.512 32.7068 271.034 33.4616 270.496 33.4332C269.958 33.4048 269.563 32.6036 269.613 31.6442C269.663 30.6841 270.141 29.9293 270.679 29.9572C271.217 29.9861 271.612 30.7873 271.562 31.7468Z" fill="#3B2539"/>
<path d="M257.449 34.5794C257.44 34.7442 257.3 34.8714 257.135 34.8626C256.97 34.8539 256.843 34.7131 256.851 34.5483C256.86 34.3829 257.001 34.2563 257.166 34.265C257.331 34.2732 257.458 34.414 257.449 34.5794Z" fill="#007B5D"/>
<path d="M258.871 35.3773C258.862 35.5421 258.721 35.6693 258.557 35.6606C258.392 35.6518 258.265 35.511 258.273 35.3462C258.282 35.1808 258.423 35.0542 258.588 35.0629C258.753 35.0711 258.88 35.2119 258.871 35.3773Z" fill="#007B5D"/>
<path d="M257.356 36.3395C257.348 36.5043 257.207 36.6315 257.042 36.6228C256.877 36.614 256.75 36.4732 256.759 36.3084C256.767 36.1436 256.908 36.0164 257.073 36.0251C257.238 36.0333 257.365 36.1741 257.356 36.3395Z" fill="#007B5D"/>
<path d="M259.635 36.7592C259.626 36.924 259.485 37.0512 259.32 37.0425C259.156 37.0337 259.028 36.8929 259.037 36.7281C259.046 36.5633 259.187 36.4361 259.351 36.4448C259.517 36.453 259.643 36.5938 259.635 36.7592Z" fill="#007B5D"/>
<path d="M261.179 36.5403C261.17 36.7052 261.03 36.8323 260.865 36.8236C260.7 36.8149 260.573 36.674 260.581 36.5092C260.59 36.3444 260.731 36.2172 260.896 36.226C261.061 36.2347 261.188 36.3755 261.179 36.5403Z" fill="#007B5D"/>
<path d="M260.561 35.0422C260.552 35.2076 260.411 35.3342 260.247 35.3254C260.082 35.3167 259.955 35.1759 259.963 35.0111C259.972 34.8462 260.113 34.7191 260.278 34.7278C260.443 34.7365 260.57 34.8774 260.561 35.0422Z" fill="#007B5D"/>
<path d="M273.57 35.427C273.562 35.5918 273.688 35.7326 273.853 35.7413C274.018 35.7501 274.159 35.6234 274.168 35.4581C274.177 35.2927 274.05 35.1519 273.885 35.1437C273.72 35.135 273.579 35.2616 273.57 35.427Z" fill="#007B5D"/>
<path d="M272.074 36.0715C272.065 36.2363 272.192 36.3777 272.357 36.3859C272.522 36.3946 272.663 36.268 272.671 36.1026C272.68 35.9372 272.553 35.7964 272.388 35.7883C272.223 35.7795 272.082 35.9061 272.074 36.0715Z" fill="#007B5D"/>
<path d="M273.478 37.1871C273.469 37.3519 273.596 37.4933 273.761 37.5015C273.926 37.5102 274.067 37.3836 274.076 37.2182C274.084 37.0534 273.958 36.912 273.792 36.9038C273.628 36.8951 273.487 37.0223 273.478 37.1871Z" fill="#007B5D"/>
<path d="M271.169 37.3656C271.16 37.5304 271.287 37.6712 271.452 37.6799C271.617 37.6887 271.758 37.5621 271.767 37.3967C271.775 37.2319 271.649 37.0911 271.483 37.0823C271.318 37.0736 271.177 37.2002 271.169 37.3656Z" fill="#007B5D"/>
<path d="M269.655 36.9862C269.646 37.1511 269.773 37.2919 269.938 37.3006C270.103 37.3093 270.244 37.1827 270.253 37.0174C270.262 36.852 270.135 36.7112 269.97 36.703C269.805 36.6943 269.664 36.8209 269.655 36.9862Z" fill="#007B5D"/>
<path d="M270.427 35.5612C270.418 35.7266 270.545 35.8674 270.71 35.8756C270.875 35.8843 271.016 35.7577 271.025 35.5923C271.034 35.4275 270.907 35.2867 270.742 35.278C270.577 35.2692 270.436 35.3959 270.427 35.5612Z" fill="#007B5D"/>
<path d="M259.534 36.8231C256.843 36.6817 254.768 34.3769 254.91 31.6856C255.051 28.9944 257.356 26.9199 260.047 27.0612C262.738 27.2026 264.813 29.5074 264.671 32.1987C264.53 34.8899 262.225 36.9644 259.534 36.8231ZM260.024 27.5039C257.577 27.3751 255.482 29.2613 255.353 31.7086C255.224 34.1558 257.11 36.2511 259.558 36.3799C262.005 36.5087 264.1 34.6225 264.229 32.1752C264.357 29.7285 262.471 27.6327 260.024 27.5039Z" fill="#F2EDFD"/>
<path d="M271.285 37.4409C268.593 37.2995 266.519 34.9947 266.66 32.3035C266.801 29.6122 269.106 27.5377 271.798 27.6791C274.489 27.8204 276.563 30.1253 276.422 32.8165C276.28 35.5083 273.976 37.5822 271.285 37.4409ZM271.774 28.1222C269.327 27.9934 267.232 29.8797 267.103 32.3269C266.974 34.7742 268.86 36.8695 271.307 36.9983C273.755 37.1271 275.85 35.2409 275.979 32.7936C276.108 30.3463 274.221 28.2505 271.774 28.1222Z" fill="#F2EDFD"/>
<path d="M275.995 31.4291C275.942 31.4264 275.89 31.4046 275.85 31.3636C275.763 31.2763 275.765 31.136 275.851 31.0498C275.915 30.9865 277.44 29.508 279.582 29.9768C279.702 30.003 279.778 30.1209 279.751 30.241C279.725 30.3605 279.607 30.4358 279.487 30.4102C277.577 29.9921 276.177 31.3516 276.163 31.3653C276.117 31.4106 276.055 31.4319 275.995 31.4291Z" fill="#F2EDFD"/>
<path d="M255.518 30.2612C255.46 30.2584 255.404 30.2328 255.363 30.1858C255.339 30.1591 253.688 28.322 251.497 28.93C251.379 28.9627 251.257 28.894 251.224 28.7755C251.191 28.6577 251.261 28.5354 251.378 28.5027C253.848 27.8177 255.622 29.8092 255.697 29.8944C255.778 29.9866 255.768 30.1264 255.676 30.2071C255.631 30.2464 255.574 30.2644 255.518 30.2612Z" fill="#F2EDFD"/>
<path d="M264.474 31.7402C264.469 31.7402 264.464 31.7397 264.459 31.7391C264.338 31.7249 264.251 31.6147 264.265 31.493C264.31 31.1066 264.682 30.39 265.761 30.4467C266.839 30.5035 267.134 31.2545 267.139 31.6436C267.14 31.7659 267.042 31.8663 266.92 31.8679C266.796 31.869 266.697 31.7713 266.696 31.6491C266.693 31.5781 266.648 30.9374 265.738 30.8894C264.8 30.8402 264.709 31.5154 264.706 31.5443C264.692 31.6611 264.59 31.7462 264.474 31.7402Z" fill="#F2EDFD"/>
<path d="M247.356 163.618L274.815 156.972L268.315 135.949L242.171 144.704L247.356 163.618Z" fill="#F7E6D4"/>
<path d="M233.188 88.9914L239.378 116.745L249.62 146.83L258.878 143.912L249.72 109.072L245.34 85.8428L233.188 88.9914Z" fill="#E38680"/>
<path d="M237.987 55.6023C237.987 55.6023 242.445 61.3537 245.293 71.8861C246.517 76.4096 246.929 80.8086 247.002 84.3556C247.094 88.8277 238.322 90.1599 238.322 90.1599C233.424 90.8602 228.724 89.3222 228.114 84.4123C227.684 80.9445 227.485 76.7158 228.004 72.2131C229.318 60.821 237.987 55.6023 237.987 55.6023Z" fill="black"/>
<path d="M258.878 143.912L249.272 145.208L250.341 158.341L251.282 162.579C251.429 163.239 252.073 163.663 252.738 163.537C253.367 163.417 253.805 162.84 253.751 162.202L253.396 158.017L253.83 157.971L254.888 162.577C255.042 163.25 255.684 163.696 256.369 163.607C257.096 163.512 257.612 162.85 257.527 162.122L257.083 158.303L258.064 162.577C258.219 163.251 258.86 163.697 259.545 163.607C260.273 163.512 260.788 162.851 260.704 162.123L260.143 157.301L260.174 157.298L261.115 161.817C261.245 162.438 261.855 162.834 262.474 162.7C262.999 162.587 263.374 162.122 263.374 161.585V156.958L258.878 143.912Z" fill="#E38680"/>
<path d="M287.926 56.5263C287.926 56.5263 285.996 76.9259 289.801 87.0037C289.801 87.0037 297.088 84.1558 299.863 81.8996C302.639 79.6439 303.807 76.5766 302.2 71.1723C300.594 65.7685 293.223 56.4853 287.926 56.5263Z" fill="black"/>
<path d="M215.48 41.5708C216.712 41.9316 218.711 43.0177 220.346 43.9755L222.81 39.2431L222.806 39.2409C222.931 38.9773 223.212 38.4402 223.584 37.7542L223.585 37.7531C224.831 35.4559 227.115 31.475 228.132 30.3747C229.453 28.9458 230.191 30.3649 229.643 31.3522C229.22 32.1135 227.065 37.2706 226.103 39.588L226.193 39.654C227.305 37.5561 229.968 32.8378 231.09 31.6245C232.411 30.1957 233.15 31.6147 232.601 32.602C232.128 33.4545 229.484 39.8161 228.773 41.5337L228.841 41.5839C230.06 39.3255 232.45 35.1383 233.498 34.0052C234.818 32.5764 235.557 33.9954 235.008 34.9827C234.646 35.6344 233.017 39.5045 231.95 42.0609C233.218 40.1971 234.74 38.0784 235.496 37.3814C236.808 36.1725 237.379 37.5239 236.804 38.3857C236.411 38.9756 234.517 42.6324 233.362 44.8782L229.763 52.4569L229.756 59.1968L219.806 57.2314L220.946 52.5928L218.67 47.7021C217.484 46.3622 215.843 44.5535 215.022 43.8533C213.652 42.682 213.114 40.8777 215.48 41.5708Z" fill="#ECB6A0"/>
<path d="M231.158 44.4869C231.12 44.4814 231.082 44.4667 231.049 44.4416L224.239 39.4472C224.13 39.3669 224.106 39.2125 224.187 39.1028C224.267 38.9931 224.421 38.9685 224.531 39.0498L231.34 44.0443C231.45 44.1245 231.474 44.279 231.393 44.3887C231.337 44.4651 231.246 44.4995 231.158 44.4869Z" fill="#E48888"/>
<path d="M223.497 48.0459C223.39 48.0301 223.302 47.9444 223.288 47.8309C223.047 45.7826 221.243 44.5306 221.225 44.5186C221.112 44.4422 221.083 44.2888 221.16 44.1764C221.236 44.0639 221.389 44.0344 221.502 44.1109C221.583 44.1665 223.509 45.4966 223.777 47.773C223.793 47.9079 223.697 48.0306 223.561 48.0465C223.54 48.0497 223.518 48.0492 223.497 48.0459Z" fill="#E48888"/>
<path d="M204.648 67.1853L140.528 66.7482C140.528 66.7482 141.228 58.7541 145.109 57.2309C146.678 56.6163 150.274 54.8567 154.006 52.9776C155.392 52.2801 156.796 51.5662 158.12 50.8884C158.26 50.8169 158.399 50.7454 158.537 50.675C159.622 50.1177 160.649 49.591 161.556 49.1217C163.555 48.0896 164.986 47.3424 165.258 47.2005C165.29 47.1841 165.305 47.1765 165.305 47.1765L165.794 47.2895C166.406 47.4314 167.022 47.5536 167.638 47.6552C168.248 47.7589 168.86 47.8424 169.473 47.9062C172.855 48.2621 176.281 48.053 179.609 47.278C179.614 47.2769 179.62 47.2758 179.626 47.2748C179.626 47.2748 181.127 48.0607 183.332 49.2035C184.248 49.6795 185.288 50.2181 186.391 50.7863C186.531 50.8573 186.671 50.9298 186.812 51.0019C187.352 51.2791 187.905 51.5629 188.465 51.8495C189.061 52.1551 189.665 52.4651 190.271 52.7718C194.39 54.8693 198.516 56.9198 200.198 57.6069C204.057 59.1826 204.648 67.1853 204.648 67.1853Z" fill="#007B5D"/>
<path d="M186.812 51.0013C186.588 51.6415 186.331 52.2948 186.036 52.947C184.869 55.5226 183.349 57.572 181.515 59.0401C179.218 60.8799 176.425 61.8012 173.216 61.7794C166.511 61.7335 162.399 57.7761 160.131 54.4659C159.283 53.2287 158.623 51.9859 158.121 50.8884C158.261 50.8169 158.4 50.7454 158.538 50.675C159.031 51.7578 159.684 52.988 160.524 54.2138C163.732 58.8884 168.004 61.2767 173.22 61.3122C178.854 61.3504 183.022 58.4709 185.609 52.7549C185.908 52.0945 186.168 51.4325 186.391 50.7857C186.531 50.8572 186.671 50.9293 186.812 51.0013Z" fill="#A73034"/>
<path d="M183.331 49.203C182.5 52.672 179.405 57.9371 172.65 57.8907C165.234 57.84 162.488 51.8206 161.556 49.1222C163.555 48.0902 164.985 47.343 165.258 47.2011C165.289 47.1847 165.305 47.1771 165.305 47.1771L165.794 47.29C166.406 47.4319 167.021 47.5542 167.637 47.6557C168.247 47.7594 168.859 47.8429 169.472 47.9068C172.855 48.2626 176.281 48.0536 179.609 47.2786C179.614 47.2775 179.619 47.2764 179.625 47.2753C179.625 47.2742 181.126 48.0601 183.331 49.203Z" fill="#FCF6F0"/>
<path d="M179.94 48.9094C179.94 48.9094 178.656 52.8537 172.877 52.8139C166.138 52.768 164.576 49.1637 164.576 49.1637C165.172 47.6153 165.585 46.181 165.865 44.8979H165.866C166.382 42.5477 166.465 40.6992 166.442 39.5656L178.285 39.1776C178.388 40.1807 178.558 41.3623 178.751 42.5516C179.265 45.7084 179.94 48.9094 179.94 48.9094Z" fill="#ECB6A0"/>
<path d="M178.751 42.5516C176.908 43.8145 172.885 45.6865 165.867 44.8984C166.382 42.5483 166.465 40.6997 166.442 39.5661L178.285 39.1781C178.389 40.1807 178.558 41.3623 178.751 42.5516Z" fill="#3B2539"/>
<path d="M162.028 24.0938C162.028 24.0938 158.397 19.0814 155.527 22.0139C152.657 24.9464 158.084 35.2643 163.086 33.0588L162.028 24.0938Z" fill="#ECB6A0"/>
<path d="M160.24 29.9757C160.115 29.9746 160.008 29.8824 159.991 29.7558C159.532 26.2873 156.793 24.1413 156.765 24.12C156.654 24.0349 156.634 23.8761 156.719 23.7653C156.805 23.6545 156.963 23.6338 157.074 23.7194C157.194 23.8117 160.008 26.0161 160.492 29.6897C160.511 29.8284 160.413 29.9555 160.275 29.9741C160.263 29.9752 160.252 29.9757 160.24 29.9757Z" fill="#E48888"/>
<path d="M159.489 27.4821C159.408 27.4815 159.329 27.4417 159.28 27.3691C158.916 26.8228 157.816 26.76 157.425 26.7813C157.284 26.7906 157.166 26.6825 157.158 26.5422C157.15 26.4025 157.257 26.2835 157.397 26.2753C157.466 26.2715 159.104 26.1913 159.701 27.088C159.778 27.2043 159.747 27.3614 159.63 27.4389C159.588 27.4684 159.538 27.4821 159.489 27.4821Z" fill="#E48888"/>
<path d="M184.351 24.2461C184.351 24.2461 188.049 19.2833 190.879 22.2551C193.708 25.2263 188.142 35.4695 183.169 33.1958L184.351 24.2461Z" fill="#ECB6A0"/>
<path d="M186.058 30.152C186.046 30.152 186.034 30.1509 186.023 30.1493C185.884 30.1291 185.789 30.0008 185.809 29.8622C186.344 26.1951 189.188 24.0294 189.308 23.9388C189.42 23.8548 189.579 23.8777 189.663 23.9896C189.746 24.1015 189.724 24.2598 189.612 24.3438C189.584 24.3645 186.814 26.48 186.309 29.9348C186.291 30.0619 186.182 30.1531 186.058 30.152Z" fill="#E48888"/>
<path d="M186.842 27.6687C186.792 27.6682 186.743 27.654 186.7 27.6245C186.585 27.5454 186.556 27.3876 186.635 27.2725C187.244 26.3839 188.881 26.4871 188.951 26.4915C189.09 26.5013 189.195 26.6219 189.185 26.7611C189.176 26.9008 189.054 27.0072 188.916 26.9963C188.522 26.9701 187.422 27.0192 187.052 27.559C187.003 27.6305 186.923 27.6693 186.842 27.6687Z" fill="#E48888"/>
<path d="M175.634 8.71979C165.19 8.64392 158.668 14.0111 159.749 26.4407C160.394 33.86 164.145 43.0586 172.941 43.326C182.108 43.6044 185.855 33.6466 187.216 26.081C188.461 19.1567 184.988 11.4492 178.318 9.21208C177.856 9.05762 176.221 8.72415 175.634 8.71979Z" fill="#ECB6A0"/>
<path d="M159.644 24.173C159.644 24.173 158.509 12.3896 158.492 9.77968C158.449 3.43335 164.876 -0.0831041 174.273 0.00149174C181.851 0.0697142 182.762 3.39406 183.354 6.08421C183.354 6.08421 188.956 6.26595 189.784 10.1786C190.612 14.0913 186.976 25.8644 186.976 25.8644C186.976 25.8644 185.802 23.1404 184.974 19.2277C184.146 15.315 183.05 12.9168 180.609 12.8508C178.167 12.7847 175.114 12.8863 171.804 14.8172C168.494 16.7482 165.196 16.9698 162.888 15.2451C162.888 15.2451 162.228 21.1385 159.644 24.173Z" fill="#4F1E4A"/>
<g opacity="0.5">
<path d="M168.704 29.1489C168.698 30.0347 167.058 30.742 165.04 30.7283C163.022 30.7147 161.391 29.985 161.397 29.0992C161.403 28.2134 163.044 27.5061 165.062 27.5203C167.08 27.5339 168.71 28.2631 168.704 29.1489Z" fill="#E48888"/>
</g>
<g opacity="0.5">
<path d="M185.893 29.2662C185.887 30.152 184.246 30.8593 182.228 30.8457C180.211 30.832 178.58 30.1023 178.586 29.2165C178.592 28.3307 180.233 27.6234 182.25 27.637C184.268 27.6507 185.899 28.3804 185.893 29.2662Z" fill="#E48888"/>
</g>
<path d="M187.299 24.3618C187.299 24.3618 187.181 30.0941 185.424 37.2935C182.607 48.834 173.223 47.23 173.223 47.23C173.223 47.23 164.002 48.7069 161.342 37.1292C159.684 29.9064 159.644 24.173 159.644 24.173L161.161 21.6777C161.161 21.6777 162.144 31.6436 165.945 33.395C165.945 33.395 167.656 30.8299 173.318 33.2766C179.013 30.9074 180.873 33.4965 180.873 33.4965C184.696 31.797 185.817 21.8452 185.817 21.8452L187.299 24.3618Z" fill="#4F1E4A"/>
<path d="M173.748 32.3002C173.313 32.2974 172.836 32.1801 172.311 31.9481C172.164 31.8832 172.078 31.7282 172.1 31.5688L172.871 25.9446C172.898 25.747 173.081 25.6089 173.278 25.6357C173.475 25.6629 173.614 25.8447 173.587 26.0428L172.853 31.3898C173.57 31.6583 174.125 31.6387 174.586 31.333C174.753 31.2228 174.976 31.2681 175.087 31.434C175.197 31.5999 175.152 31.8243 174.986 31.935C174.614 32.1812 174.204 32.3029 173.748 32.3002Z" fill="#E48888"/>
<path d="M173.05 36.6686C170.98 36.6544 169.416 35.7894 169.389 35.7746C169.215 35.6764 169.155 35.4559 169.253 35.2823C169.352 35.1088 169.572 35.0482 169.745 35.1464C169.92 35.2447 173.904 37.4267 177.387 34.2486C177.535 34.1144 177.763 34.1247 177.898 34.2721C178.032 34.4195 178.022 34.6481 177.874 34.7824C176.259 36.2555 174.526 36.679 173.05 36.6686Z" fill="#684868"/>
<path d="M173.621 38.7382C172.803 38.7327 172.15 38.5286 172.104 38.5139C171.914 38.4533 171.809 38.2497 171.87 38.0598C171.93 37.8699 172.133 37.7656 172.323 37.8257C172.339 37.8306 173.938 38.3251 175.069 37.6958C175.243 37.5986 175.463 37.6614 175.56 37.836C175.657 38.0107 175.595 38.2306 175.42 38.3272C174.842 38.6492 174.191 38.742 173.621 38.7382Z" fill="#684868"/>
<path d="M166.103 22.6355C166.883 22.2229 168.022 21.7148 169.127 21.5614C169.721 21.479 170.098 20.8852 169.9 20.3192L169.859 20.2052C169.716 19.7964 169.313 19.5377 168.882 19.5808C167.897 19.679 166.149 20.0114 165.002 21.139C164.754 21.383 164.666 21.7475 164.768 22.0805C164.941 22.6426 165.583 22.9106 166.103 22.6355Z" fill="#3B2539"/>
<path d="M181.052 22.7376C180.277 22.3146 179.145 21.7907 178.043 21.622C177.45 21.5314 177.082 20.9321 177.287 20.3694L177.329 20.2559C177.478 19.8493 177.885 19.5961 178.315 19.6452C179.299 19.7565 181.042 20.1135 182.173 21.2558C182.418 21.503 182.501 21.8692 182.394 22.2005C182.214 22.7605 181.569 23.0198 181.052 22.7376Z" fill="#3B2539"/>
<path d="M168.986 25.4141C168.996 26.3932 168.63 27.1901 168.168 27.195C167.705 27.1999 167.322 26.4107 167.312 25.4315C167.301 24.453 167.668 23.6556 168.13 23.6507C168.592 23.6463 168.975 24.4355 168.986 25.4141Z" fill="#3B2539"/>
<path d="M177.733 25.4741C177.709 26.4527 178.064 27.255 178.526 27.2665C178.988 27.2774 179.382 26.4936 179.406 25.5151C179.429 24.5365 179.074 23.7342 178.612 23.7227C178.15 23.7113 177.756 24.4955 177.733 25.4741Z" fill="#3B2539"/>
<path d="M140.528 66.7482L143.44 96.1177L145.349 139.892H199.682L201.435 94.4634L204.648 67.1859C204.648 67.1859 148.268 62.1773 140.528 66.7482Z" fill="#007B5D"/>
<path d="M145.349 139.892L142.604 189.549H171.853L173.73 157.784L177.229 157.346L179.94 189.549H206.546L199.938 133.262L144.985 131.542L145.349 139.892Z" fill="#3B2539"/>
<path d="M161.604 150.263L160.111 146.929C159.832 146.306 159.351 145.798 158.744 145.486L154.86 143.485L151.224 141.005L147.455 138.247L145.433 135.95L139.496 143.697L139.964 144.13C139.964 144.13 139.964 144.13 141.021 146.153C142.078 148.175 144.422 150.335 144.422 150.335L147.048 152.261L149.083 153.921L150.633 155.875C151.095 156.458 151.925 156.592 152.547 156.186C152.812 156.013 152.91 155.672 152.778 155.385L151.216 151.999L152.511 152.955L154.314 155.295C154.733 155.84 155.503 155.965 156.073 155.581C156.457 155.323 156.6 154.824 156.41 154.4L154.935 151.106L155.773 151.705L157.39 153.805C157.914 154.485 158.876 154.642 159.588 154.162C159.827 154.002 159.915 153.693 159.798 153.43L157.772 148.907L159.506 151.159C159.925 151.703 160.695 151.829 161.265 151.445C161.651 151.185 161.794 150.687 161.604 150.263ZM157.628 148.776L157.704 148.818L157.717 148.834L157.628 148.776Z" fill="#ECB6A0"/>
<path d="M136.287 117.619L132.776 113.096L147.102 78.1108L145.109 57.2309C145.109 57.2309 134.615 58.1734 129.028 74.5321C123.439 90.8902 116.679 112.361 116.679 112.361C118.388 131.274 139.496 146.1 139.496 146.1L147.394 136.46L136.287 117.619Z" fill="#007B5D"/>
<path d="M232.167 57.2309L217.927 56.2277C217.927 56.2277 217.559 69.4378 216.612 78.7679C213.089 72.224 208.509 66.4605 207.264 63.8703C204.051 57.1812 194.146 54.7279 194.146 54.7279C194.146 54.7279 194.704 72.999 199.085 83.5151C201.623 89.6054 206.439 97.6879 210.043 103.411C215.748 112.473 229.759 110.221 232.032 99.7569C232.081 99.5315 232.126 99.3028 232.167 99.0698C234.139 87.896 232.167 57.2309 232.167 57.2309Z" fill="#007B5D"/>
<path d="M126.519 79.8976C126.519 79.8976 137.757 102.085 142.205 111.908L131.641 120.433L112.738 92.6334L126.519 79.8976Z" fill="#965450"/>
<path d="M134.792 114.039L118.112 139.892L124.969 148.603C124.969 148.603 144.059 130.997 145.17 124.696C146.282 118.395 141.548 110.485 141.548 110.485L134.792 114.039Z" fill="#965450"/>
<path d="M131.329 160.053L133.061 159.665C133.576 159.55 133.891 159.03 133.756 158.52L133.718 158.376C133.53 157.667 132.903 157.163 132.171 157.132L128.662 156.984C128.662 156.984 128.262 144.499 127.06 143.497C127.02 143.463 126.978 143.449 126.935 143.448L118.069 139.892L117.045 154.58L117.065 154.588H117.045C117.045 154.588 118.714 160.664 119.182 161.532C119.382 161.904 120.898 162.03 122.641 162.053C122.696 162.195 122.747 162.318 122.786 162.392C123.254 163.259 130.865 162.792 131.866 162.792C132.737 162.792 133.049 160.833 131.329 160.053Z" fill="#965450"/>
<path d="M43.8994 80.4172L33.4478 110.68L46.5028 115.646C46.5028 115.646 62.0815 91.0676 62.3992 87.8317C62.7168 84.5957 58.7332 80.8244 58.7332 80.8244L43.8994 80.4172Z" fill="#76413B"/>
<path d="M67.1872 39.0542C67.1872 39.0542 63.5534 38.5166 63.2423 41.6014C62.9313 44.6861 65.0985 45.1964 65.0985 45.1964C65.0985 45.1964 61.6623 41.8481 59.5911 44.5268C57.5198 47.2054 61.3812 49.0584 61.3812 49.0584C61.3812 49.0584 57.1127 47.1017 56.5178 49.9403C55.9229 52.7795 59.3586 54.2635 59.3586 54.2635C59.3586 54.2635 55.763 54.2558 56.0097 55.8359C56.2564 57.4159 59.6053 55.8435 59.6053 55.8435C59.6053 55.8435 54.6381 57.1326 55.7188 61.0497C56.7994 64.9667 60.6117 62.4289 60.6117 62.4289C60.6117 62.4289 57.6792 64.2376 58.8357 69.214C59.9922 74.191 81.9118 62.3623 81.9118 62.3623L81.3284 48.6894L67.1872 39.0542Z" fill="#352C38"/>
<path d="M93.3307 37.1751C93.3307 37.1751 96.8504 36.1234 97.5993 39.1317C98.3481 42.1406 96.2763 42.9549 96.2763 42.9549C96.2763 42.9549 99.1984 39.1497 101.631 41.5048C104.065 43.8598 100.508 46.2459 100.508 46.2459C100.508 46.2459 104.453 43.6988 105.447 46.4239C106.442 49.1484 103.254 51.1088 103.254 51.1088C103.254 51.1088 106.811 50.5871 106.793 52.1862C106.775 53.7853 103.236 52.708 103.236 52.708C103.236 52.708 108.336 53.2734 107.827 57.3045C107.317 61.3357 103.181 59.3692 103.181 59.3692C103.181 59.3692 106.343 60.7402 105.91 65.8307C105.477 70.9217 82.0915 62.3497 82.0915 62.3497L80.7134 48.7336L93.3307 37.1751Z" fill="#352C38"/>
<path d="M67.1872 39.0542C67.1872 39.0542 63.5534 38.5166 63.2423 41.6014C62.9313 44.6861 65.0985 45.1964 65.0985 45.1964C65.0985 45.1964 61.6623 41.8481 59.5911 44.5268C57.5198 47.2054 61.3812 49.0584 61.3812 49.0584C61.3812 49.0584 57.1127 47.1017 56.5178 49.9403C55.9229 52.7795 59.3586 54.2635 59.3586 54.2635C59.3586 54.2635 55.763 54.2558 56.0097 55.8359C56.2564 57.4159 59.6053 55.8435 59.6053 55.8435C59.6053 55.8435 54.6381 57.1326 55.7188 61.0497C56.7994 64.9667 60.6117 62.4289 60.6117 62.4289C60.6117 62.4289 57.6792 64.2376 58.8357 69.214C59.9922 74.191 81.9118 62.3623 81.9118 62.3623L81.3284 48.6894L67.1872 39.0542Z" fill="#352C38"/>
<path d="M93.3307 37.1751C93.3307 37.1751 96.8504 36.1234 97.5993 39.1317C98.3481 42.1406 96.2763 42.9549 96.2763 42.9549C96.2763 42.9549 99.1984 39.1497 101.631 41.5048C104.065 43.8598 100.508 46.2459 100.508 46.2459C100.508 46.2459 104.453 43.6988 105.447 46.4239C106.442 49.1484 103.254 51.1088 103.254 51.1088C103.254 51.1088 106.811 50.5871 106.793 52.1862C106.775 53.7853 103.236 52.708 103.236 52.708C103.236 52.708 108.336 53.2734 107.827 57.3045C107.317 61.3357 103.181 59.3692 103.181 59.3692C103.181 59.3692 106.343 60.7402 105.91 65.8307C105.477 70.9217 82.0915 62.3497 82.0915 62.3497L80.7134 48.7336L93.3307 37.1751Z" fill="#352C38"/>
<path d="M90.069 59.1154C86.189 57.3471 86.4996 47.4303 86.4996 47.4303L80.9343 48.1922L80.9086 47.8331L80.323 48.0557L79.7117 47.9193L79.7374 48.2784L74.1202 48.3199C74.1202 48.3199 75.8459 58.0905 72.2585 60.3953C68.6717 62.7001 46.6833 65.304 50.6937 87.8731L82.4188 85.5928L83.6157 85.5066L115.341 83.2263C116.083 60.3161 93.9489 60.8838 90.069 59.1154Z" fill="#965450"/>
<path d="M74.0073 57.7171C78.426 56.7304 82.8391 55.7229 87.2485 54.6946C86.3769 51.3457 86.4991 47.4303 86.4991 47.4303L80.9338 48.1922L80.9082 47.8331L80.3225 48.0557L79.7113 47.9193L79.7369 48.2784L74.1198 48.3199C74.1198 48.3199 75.1207 53.9971 74.0073 57.7171Z" fill="#76413B"/>
<path d="M68.3421 34.2519C66.9968 30.9183 64.4491 31.8958 64.2106 31.9956C63.9568 32.0437 61.2934 32.6369 62.0138 36.1588C62.7386 39.7015 64.9534 41.4911 66.8582 40.7816C68.8383 40.3204 69.6951 37.6052 68.3421 34.2519Z" fill="#76413B"/>
<path d="M90.3067 32.6729C91.1614 29.181 93.8231 29.7841 94.0726 29.8491C94.3302 29.8605 97.0514 30.0668 96.8418 33.6553C96.6312 37.2657 94.6953 39.3527 92.7081 38.9232C90.6838 38.7502 89.4471 36.1856 90.3067 32.6729Z" fill="#76413B"/>
<path d="M65.3012 29.2738C65.5888 14.2147 77.0234 14.2354 78.1041 14.2709C79.1689 14.081 90.4823 12.4256 92.9209 27.2888C95.3742 42.2405 89.3766 52.5519 80.8603 52.6207C72.422 53.7701 65.0119 44.4225 65.3012 29.2738Z" fill="#965450"/>
<path d="M81.5784 35.1797C82.0439 35.8319 82.3518 36.5294 82.6121 37.2411C82.8642 37.9545 83.0602 38.6842 83.1737 39.4373L83.2075 39.6628L83.1033 39.7697C82.8135 40.0672 82.5128 40.3554 82.2049 40.6381C81.8906 40.9148 81.5789 41.1942 81.2329 41.4442C81.4174 41.0589 81.6362 40.7025 81.8529 40.3433C82.0761 39.9902 82.3059 39.6426 82.5466 39.3047L82.4762 39.6366C82.1744 38.9374 81.9544 38.2143 81.7912 37.4758C81.6357 36.7346 81.5282 35.9798 81.5784 35.1797Z" fill="#76413B"/>
<path d="M86.0553 43.7992C83.5366 46.6263 78.9395 46.8097 75.2964 44.7139L86.0553 43.7992Z" fill="white"/>
<path d="M89.9794 29.4769C89.2764 29.2089 88.6499 28.9611 88.038 28.775C87.4301 28.5867 86.851 28.4726 86.2976 28.4639C85.7452 28.453 85.2011 28.5376 84.6406 28.7788C84.3448 28.8618 84.0762 29.0403 83.7668 29.1778C83.4639 29.3322 83.1855 29.5347 82.8242 29.6925C82.9263 29.335 83.0742 28.9846 83.2663 28.6555C83.4988 28.3624 83.7056 28.0169 84.0375 27.7893C84.6335 27.2626 85.492 26.9641 86.3227 26.9903C87.1577 27.005 87.9393 27.3052 88.5636 27.7462C89.182 28.1987 89.7005 28.7646 89.9794 29.4769Z" fill="#352C38"/>
<path d="M75.8114 30.4953C75.1085 30.2273 74.4814 29.9795 73.8701 29.7934C73.2621 29.6051 72.6825 29.4911 72.1296 29.4823C71.5773 29.4714 71.0331 29.556 70.4726 29.7972C70.1762 29.8802 69.9083 30.0587 69.5988 30.1962C69.2959 30.3507 69.0176 30.5537 68.6562 30.7109C68.7583 30.3534 68.9062 30.003 69.0983 29.6739C69.3308 29.3808 69.5377 29.0353 69.8695 28.8077C70.4655 28.2811 71.324 27.9825 72.1547 28.0087C72.9897 28.0235 73.7713 28.3236 74.3957 28.7646C75.014 29.2171 75.532 29.7825 75.8114 30.4953Z" fill="#352C38"/>
<path d="M75.7512 35.9487C75.4974 35.3336 75.1879 34.754 74.7551 34.3409C74.3272 33.9277 73.7864 33.7192 73.2051 33.7722C72.9104 33.776 72.6326 33.8447 72.381 33.9528C72.1332 34.0691 71.9296 34.2535 71.7604 34.4855C71.4303 34.9625 71.2905 35.612 71.2327 36.2735C71.0253 35.6398 70.9936 34.9046 71.3205 34.2295C71.4799 33.8917 71.7632 33.6041 72.095 33.4054C72.4378 33.2286 72.81 33.139 73.1735 33.121C73.9086 33.0555 74.7109 33.413 75.1345 34.0047C75.5798 34.581 75.7594 35.2801 75.7512 35.9487Z" fill="#352C38"/>
<path d="M88.4685 34.8288C88.2147 34.2137 87.9052 33.6341 87.4724 33.2209C87.0445 32.8078 86.5037 32.5993 85.9224 32.6522C85.6277 32.656 85.3499 32.7248 85.0983 32.8329C84.8505 32.9491 84.6475 33.1336 84.4777 33.3655C84.1475 33.8425 84.0078 34.492 83.95 35.1535C83.7426 34.5199 83.7109 33.7847 84.0378 33.1101C84.1972 32.7723 84.4805 32.4847 84.8123 32.286C85.155 32.1092 85.5273 32.0196 85.8908 32.0016C86.6259 31.9361 87.4282 32.2936 87.8517 32.8853C88.2971 33.4605 88.4767 34.1596 88.4685 34.8288Z" fill="#352C38"/>
<path d="M78.5447 14.2392C78.5447 14.2392 79.9064 23.3598 66.2733 28.2014C66.2733 28.2014 67.0041 32.8094 66.126 37.2662C66.126 37.2662 61.1556 31.0989 62.7225 23.2632C64.29 15.4274 74.5867 8.50091 78.5447 14.2392Z" fill="#352C38"/>
<path d="M77.4492 14.3178C77.4492 14.3178 77.846 23.5077 92.0314 26.3501C92.0314 26.3501 91.7879 32.2265 93.2943 36.512C93.2943 36.512 97.511 28.4857 94.8394 20.9551C92.1673 13.4238 80.546 8.07247 77.4492 14.3178Z" fill="#352C38"/>
<path d="M68.3273 27.3871C66.196 26.1187 64.259 24.4262 62.9039 22.5024C62.8351 22.7551 62.774 23.0083 62.7227 23.2632C61.1552 31.0989 66.1261 37.2662 66.1261 37.2662C67.0043 32.8089 66.2735 28.2014 66.2735 28.2014C67.0032 27.9422 67.6811 27.6687 68.3273 27.3871Z" fill="#2A242D"/>
<path d="M120.211 136.969L111.134 108.221L116.27 83.1597C117.063 59.9166 94.2367 60.5192 90.2378 58.7301C88.6976 58.0413 87.802 56.1245 87.2802 54.0293C85.2477 54.6389 83.0291 55.0543 80.6905 55.2224C78.3987 55.3872 76.1856 55.3021 74.1226 55.0041C73.9032 57.1419 73.2897 59.1525 71.8701 60.0509C68.1681 62.3934 45.491 65.0611 49.599 87.9522L58.9346 109.735C58.9346 109.735 52.3782 124.865 52.3782 136.969H120.211Z" fill="#007B5D"/>
<path d="M52.3779 136.969L55.5647 189.549H120.211V136.969H52.3779Z" fill="#3B2539"/>
<path d="M61.8912 63.981C61.8912 63.981 53.7045 66.4234 47.6393 72.5574C41.574 78.692 39.022 87.8731 39.022 87.8731L56.9574 96.1171L61.8912 63.981Z" fill="black"/>
<path d="M103.101 62.031C103.101 62.031 111.532 63.408 118.331 68.7173C125.13 74.0272 128.834 82.8072 128.834 82.8072L112.097 93.2736L103.101 62.031Z" fill="black"/>
<path d="M46.9357 106.855L27.9038 70.0627L17.4526 73.0492C17.4526 73.0492 27.5588 108.457 30.1224 113.441C35.0628 123.044 52.2123 119.304 46.9357 106.855Z" fill="#965450"/>
<path d="M30.5858 55.4298C29.2372 56.2446 27.2041 58.1614 25.5652 59.8119L21.1553 54.9675L21.1591 54.9642C20.9271 54.6908 20.4256 54.1412 19.7684 53.4437L19.7673 53.4426C17.5662 51.1072 13.6055 47.099 12.0533 46.1122C10.0372 44.8307 9.60547 46.747 10.5666 47.7468C11.3083 48.518 15.4835 53.9627 17.3539 56.4116L17.2671 56.5181C15.2881 54.377 10.6457 49.6129 8.93361 48.524C6.9175 47.242 6.48579 49.1588 7.44691 50.1586C8.27704 51.0221 13.4112 57.7433 14.7953 59.5586L14.7292 59.6399C12.5745 57.3417 8.42222 53.1217 6.82363 52.1054C4.80752 50.8234 4.37581 52.7402 5.33692 53.7401C5.97112 54.3999 9.12082 58.4823 11.1882 61.1818C9.09898 59.367 6.6266 57.3302 5.51048 56.7408C3.57406 55.7174 3.32027 57.5005 4.27211 58.3437C4.92377 58.9211 8.3207 62.6668 10.3963 64.97L17.0466 72.8342L19.215 78.1108L29.5406 73.8668L27.9038 70.0621L28.7214 63.7082C29.7087 61.745 31.089 59.0832 31.8427 57.9944C33.1029 56.1753 33.1755 53.8645 30.5858 55.4298Z" fill="#965450"/>
<path d="M12.8907 63.8124C12.935 63.7939 12.9748 63.7644 13.007 63.7245L19.522 55.659C19.6273 55.5291 19.6071 55.3386 19.4767 55.2339C19.3468 55.1285 19.1568 55.1482 19.0515 55.2792L12.5365 63.3447C12.4312 63.4746 12.4519 63.6651 12.5818 63.7698C12.6719 63.8424 12.7909 63.855 12.8907 63.8124Z" fill="#76413B"/>
<path d="M23.101 65.6326C23.2238 65.5802 23.3013 65.4509 23.2817 65.3117C22.9258 62.8044 24.6734 60.7523 24.6914 60.7321C24.8006 60.606 24.7869 60.415 24.6608 60.3058C24.5348 60.1961 24.3443 60.2092 24.2346 60.3353C24.1549 60.427 22.2867 62.6101 22.6824 65.3968C22.7059 65.5622 22.8587 65.6768 23.0246 65.6534C23.0513 65.6501 23.077 65.6424 23.101 65.6326Z" fill="#76413B"/>
</svg>
